<?xml version="1.0" encoding="UTF-8" standalone="no"?>
<!DOCTYPE svg PUBLIC "-//W3C//DTD SVG 1.0//EN" "http://www.w3.org/TR/2001/REC-SVG-20010904/DTD/svg10.dtd">
<!-- Created with Inkscape (http://www.inkscape.org/) -->
<svg xmlns:svg="http://www.w3.org/2000/svg" xmlns="http://www.w3.org/2000/svg" version="1.0" width="800" height="1100" id="svg2">
  <defs id="defs4"/>
  <g id="layer1">
    <rect width="762.93774" height="1050.4215" ry="0" x="19.206354" y="25.55047" id="rect3598" style="opacity:1;fill:#ffffff;fill-opacity:1;fill-rule:nonzero;stroke:#3ab1d0;stroke-width:21.89188004;stroke-linecap:round;stroke-linejoin:miter;stroke-miterlimit:4;stroke-dasharray:none;stroke-opacity:1"/>
    <path d="M 224.88499,176.15108 L 224.88499,237.93587 C 224.88494,251.46199 222.79996,262.34373 218.63015,270.5811 C 214.46019,278.81841 204.44208,282.9371 188.57578,282.9371 C 186.0338,282.9371 183.61831,282.83546 181.32929,282.6322 C 179.04028,282.42888 176.72565,282.12392 174.38546,281.71734 C 172.14762,281.31075 169.85937,280.80247 167.52071,280.19262 C 165.18206,279.58271 162.74172,278.81995 160.1998,277.90437 L 161.57318,264.63122 C 164.62415,265.95338 167.52225,267.09788 170.26754,268.06474 C 173.01279,269.03154 175.70762,269.76946 178.35205,270.2785 C 179.98146,270.58263 181.6094,270.81075 183.2358,270.96284 C 184.86209,271.11493 186.53967,271.19095 188.26853,271.19101 C 193.35554,271.19095 197.70387,270.22492 201.31357,268.29285 C 204.92316,266.36078 207.54121,263.56349 209.16761,259.90109 C 210.18558,257.86816 210.84743,255.75838 211.15326,253.57177 C 211.45887,251.38521 211.66142,249.1218 211.76081,246.78156 C 211.76076,246.27252 211.76076,245.73869 211.76081,245.18001 C 211.76076,244.62133 211.76076,244.03632 211.76081,243.42483 C 211.76076,242.61165 211.76076,241.79848 211.76081,240.9853 C 211.76076,240.17213 211.81193,239.41018 211.91444,238.69941 C 209.17067,242.76533 205.68828,245.81553 201.46719,247.85 C 197.24606,249.88452 192.43991,250.90178 187.04876,250.90178 C 177.18499,250.90178 169.25258,247.52025 163.25152,240.75719 C 157.25041,233.99413 154.24986,225.06931 154.24991,213.98271 C 154.24986,202.48958 157.27526,193.13256 163.32601,185.91163 C 169.37676,178.69081 177.18346,175.0804 186.74611,175.08029 C 192.44145,175.0804 197.57739,176.35216 202.15394,178.89561 C 206.73033,181.43917 209.98385,184.89754 211.91444,189.27066 C 211.91438,189.06587 211.91438,188.86178 211.91444,188.65846 C 211.91438,188.45519 211.96555,188.25269 212.06806,188.05085 C 212.06801,187.9485 212.06801,187.8461 212.06806,187.7436 C 212.06801,187.64125 212.06801,187.54038 212.06806,187.44099 L 211.91444,185.4577 L 211.91444,176.15108 L 224.88499,176.15108 L 224.88499,176.15108 z M 189.94922,186.82644 C 183.74479,186.82649 178.68492,189.36923 174.76955,194.45466 C 170.85414,199.54025 168.89646,205.99836 168.89646,213.82908 C 168.89646,221.25328 170.80291,227.35597 174.61593,232.13732 C 178.42884,236.91861 183.38631,239.30932 189.48829,239.30926 C 195.89746,239.30932 201.13581,236.86821 205.20337,231.98599 C 209.27077,227.10383 211.30447,220.84822 211.30453,213.21918 C 211.30447,205.69264 209.24516,199.41219 205.12653,194.37787 C 201.00779,189.34367 195.94869,186.82649 189.94922,186.82644 L 189.94922,186.82644 z M 259.11776,176.30011 L 259.11776,250.90178 L 245.2347,250.90178 L 245.2347,176.30011 L 259.11776,176.30011 L 259.11776,176.30011 z M 259.42042,143.1986 L 259.42042,158.45511 L 244.31754,158.45511 L 244.31754,143.1986 L 259.42042,143.1986 L 259.42042,143.1986 z M 274.72115,176.30011 L 287.53342,176.30011 L 288.14328,189.57326 C 290.38106,184.89595 293.33116,181.36239 296.99362,178.97239 C 300.65602,176.58262 304.82587,175.38765 309.50329,175.3876 C 310.11156,175.38765 310.64463,175.38765 311.10249,175.3876 C 311.56025,175.38765 312.04368,175.43888 312.55272,175.54123 C 313.16411,175.54128 313.82601,175.61735 314.53832,175.76934 C 315.25062,175.92149 316.06303,176.09843 316.97554,176.30011 L 316.97554,188.96336 C 316.16231,188.65928 315.47638,188.43116 314.91776,188.27902 C 314.35908,188.12698 313.77401,187.99973 313.16263,187.89722 C 312.75599,187.89728 312.32379,187.87172 311.86603,187.82044 C 311.40816,187.76926 310.92473,187.74365 310.4158,187.7436 C 303.80785,187.74365 298.87599,190.13353 295.62023,194.91324 C 292.36436,199.69306 290.38106,204.93064 289.67034,210.62597 C 289.56789,211.54166 289.49105,212.48284 289.43988,213.44964 C 289.38865,214.4165 289.36304,215.35768 289.36304,216.27326 L 289.36304,221.61323 L 289.36304,250.90178 L 275.63365,250.90178 L 275.63365,205.43962 C 275.6336,203.0001 275.60881,200.55981 275.55917,198.11865 C 275.50947,195.6776 275.43345,193.23572 275.331,190.79302 C 275.2286,188.45596 275.12691,186.06684 275.02604,183.62568 C 274.92518,181.18468 274.82354,178.7428 274.72115,176.30011 L 274.72115,176.30011 z M 395.71844,213.82908 C 395.71839,225.21987 392.13277,234.55123 384.96165,241.82332 C 377.79036,249.09542 368.56058,252.73145 357.2723,252.73145 C 346.28811,252.73145 337.21119,249.07058 330.0416,241.74884 C 322.8719,234.4271 319.2871,225.12053 319.2871,213.82908 C 319.2871,202.33902 322.8719,192.88113 330.0416,185.45535 C 337.21119,178.02973 346.33934,174.31687 357.42593,174.31681 C 368.61181,174.31687 377.76475,178.00412 384.88481,185.37856 C 392.00476,192.75311 395.61593,202.23662 395.71844,213.82908 L 395.71844,213.82908 z M 381.07184,214.13634 C 380.96939,205.69417 378.75716,198.77825 374.43526,193.38853 C 370.11326,187.99896 364.49471,185.30413 357.57961,185.30407 C 350.76374,185.30413 345.11875,187.97335 340.64476,193.31174 C 336.17067,198.65024 333.93365,205.43968 333.9337,213.68005 C 333.93365,222.01988 336.14505,228.80855 340.56792,234.04613 C 344.99074,239.2837 350.66129,241.90246 357.57961,241.90246 C 364.39226,241.90246 370.01081,239.2837 374.43526,234.04613 C 378.85961,228.80855 381.07179,222.17197 381.07184,214.13634 L 381.07184,214.13634 z M 456.26251,178.43703 L 455.35001,190.64405 C 453.3139,189.42122 451.20259,188.55606 449.01603,188.04855 C 446.82941,187.54115 444.41392,187.28742 441.76954,187.28737 C 434.34535,187.28742 428.2946,189.70292 423.61729,194.53385 C 418.93992,199.36485 416.60127,205.54366 416.60127,213.0702 C 416.60127,221.10272 418.88946,227.61051 423.46596,232.59354 C 428.0424,237.57663 434.04275,240.06814 441.46694,240.06814 C 442.99084,240.06814 444.41392,239.96651 445.73613,239.76319 C 447.05829,239.55992 448.38051,239.25497 449.70272,238.84838 C 450.82315,238.5442 451.99327,238.0872 453.21308,237.47729 C 454.43279,236.86744 455.70378,236.1559 457.02605,235.34267 L 458.09683,248.00132 C 455.34995,249.32354 452.5271,250.26472 449.62823,250.82494 C 446.72931,251.38521 443.44865,251.66531 439.78625,251.66531 C 428.39546,251.66531 419.24252,248.18215 412.32743,241.21577 C 405.41222,234.24939 401.95467,225.07084 401.95467,213.68005 C 401.95467,202.59351 405.48906,193.43981 412.55784,186.21888 C 419.62662,178.99806 428.55068,175.38765 439.33002,175.3876 C 439.83901,175.38765 440.32238,175.38765 440.78025,175.3876 C 441.23801,175.38765 441.72143,175.43888 442.23048,175.54123 C 444.66994,175.64062 447.08467,175.9448 449.47461,176.45373 C 451.86444,176.96283 454.12707,177.62391 456.26251,178.43703 L 456.26251,178.43703 z M 473.14033,181.94734 C 474.36009,181.23355 475.55501,180.59732 476.72513,180.03853 C 477.89525,179.47996 479.09016,178.94612 480.30998,178.43703 C 483.15609,177.31972 486.02857,176.48093 488.92755,175.92067 C 491.82642,175.36051 494.90376,175.0804 498.15963,175.08029 C 505.07473,175.0804 510.89658,176.40256 515.62517,179.04688 C 520.35365,181.69137 523.68477,185.45464 525.61848,190.3368 C 526.4316,192.57464 527.01584,195.29509 527.37131,198.49809 C 527.72662,201.7012 527.90433,205.89749 527.90438,211.08691 L 527.90438,225.57982 C 527.90433,227.71527 527.90433,229.82504 527.90438,231.90915 C 527.90433,233.99337 527.9555,236.10314 528.05801,238.23847 C 528.05795,240.37386 528.10918,242.48441 528.21163,244.57015 C 528.31398,246.65585 528.46607,248.76639 528.66791,250.90178 L 516.00926,250.90178 C 516.00921,250.0886 515.98359,249.42752 515.93242,248.91848 C 515.8812,248.4095 515.85558,247.90046 515.85564,247.39142 C 515.85558,246.98483 515.85558,246.60385 515.85564,246.24849 C 515.85558,245.89313 515.85558,245.51211 515.85564,245.10552 C 515.85558,244.59653 515.85558,244.16433 515.85564,243.80892 C 515.85558,243.45356 515.85558,243.07259 515.85564,242.666 C 515.85558,241.95216 515.8812,241.23903 515.93242,240.52672 C 515.98359,239.81442 516.00921,239.00048 516.00926,238.08485 C 513.15998,242.86773 509.72648,246.35248 505.70872,248.53904 C 501.69085,250.72566 496.7846,251.81894 490.98999,251.81894 C 483.15609,251.81894 476.87487,249.81003 472.14633,245.79221 C 467.41774,241.77445 465.05347,236.35763 465.05347,229.54176 C 465.05347,221.71104 468.435,215.6859 475.19811,211.46635 C 481.96112,207.24685 491.59825,205.13708 504.10952,205.13702 C 504.41365,205.13708 504.69299,205.13708 504.94754,205.13702 C 505.20198,205.13708 505.43009,205.13708 505.63188,205.13702 C 506.8547,205.13708 508.15207,205.16187 509.52398,205.21151 C 510.89576,205.2612 512.54854,205.33722 514.48219,205.43962 C 514.37974,199.13597 512.82865,194.45783 509.82893,191.40523 C 506.82914,188.35279 502.17581,186.82649 495.86908,186.82644 C 493.52879,186.82649 491.34223,187.00496 489.30929,187.36186 C 487.2763,187.71886 485.24178,188.30392 483.20578,189.11704 C 481.68178,189.62608 480.15706,190.28721 478.63164,191.10033 C 477.1061,191.91356 475.53016,192.88036 473.90381,194.00079 L 473.14033,181.94734 L 473.14033,181.94734 z M 514.78485,215.66335 C 514.07402,215.56101 513.41371,215.48416 512.80385,215.43294 C 512.19395,215.38177 511.6345,215.35615 511.12551,215.3561 C 510.51402,215.2537 509.92898,215.20253 509.37035,215.20247 C 508.81162,215.20253 508.12569,215.20253 507.31257,215.20247 C 498.15958,215.20253 491.26927,216.37259 486.6416,218.71278 C 482.01388,221.05308 479.70007,224.61308 479.70007,229.39279 C 479.70007,232.85039 481.02223,235.64686 483.66666,237.78225 C 486.31103,239.91764 489.76858,240.9853 494.03942,240.9853 C 502.07494,240.9853 507.54145,238.46818 510.43882,233.43386 C 513.3361,228.39961 514.7848,222.4761 514.78485,215.66335 L 514.78485,215.66335 z M 544.3923,176.30011 L 557.20458,176.30011 L 557.81449,189.57326 C 560.05228,184.89595 563.00237,181.36239 566.66483,178.97239 C 570.32718,176.58262 574.49709,175.38765 579.17445,175.3876 C 579.78277,175.38765 580.31584,175.38765 580.77365,175.3876 C 581.23141,175.38765 581.71484,175.43888 582.22388,175.54123 C 582.83527,175.54128 583.49717,175.61735 584.20953,175.76934 C 584.92178,175.92149 585.73419,176.09843 586.64675,176.30011 L 586.64675,188.96336 C 585.83352,188.65928 585.1476,188.43116 584.58897,188.27902 C 584.03023,188.12698 583.44517,187.99973 582.83379,187.89722 C 582.42715,187.89728 581.99495,187.87172 581.53719,187.82044 C 581.07937,187.76926 580.59595,187.74365 580.08696,187.7436 C 573.47906,187.74365 568.5472,190.13353 565.29139,194.91324 C 562.03552,199.69306 560.05228,204.93064 559.3415,210.62597 C 559.23905,211.54166 559.16226,212.48284 559.11109,213.44964 C 559.05981,214.4165 559.0342,215.35768 559.03425,216.27326 L 559.03425,221.61323 L 559.03425,250.90178 L 545.30481,250.90178 L 545.30481,205.43962 C 545.30481,203.0001 545.27996,200.55981 545.23033,198.11865 C 545.18063,195.6776 545.10461,193.23572 545.00221,190.79302 C 544.89976,188.45596 544.79812,186.06684 544.69726,183.62568 C 544.59639,181.18468 544.4947,178.7428 544.3923,176.30011 L 544.3923,176.30011 z M 656.97808,141.06168 L 656.97808,216.11963 C 656.97803,221.91748 657.07966,227.7145 657.28304,233.5107 C 657.48625,239.30696 657.74156,245.10399 658.04887,250.90178 L 644.62209,250.90178 L 644.62209,238.3921 C 641.67347,242.97019 638.08862,246.35248 633.86759,248.53904 C 629.64645,250.72566 624.63699,251.81894 618.83925,251.81894 C 608.87308,251.81894 600.94067,248.4118 595.04201,241.59751 C 589.14336,234.78328 586.19403,225.57835 586.19403,213.98271 C 586.19403,202.39025 589.19453,193.00837 595.19564,185.83714 C 601.19675,178.66596 609.07794,175.0804 618.83925,175.08029 C 624.128,175.0804 628.85731,176.17368 633.02727,178.36019 C 637.19707,180.54686 640.70661,183.77706 643.55595,188.05085 C 643.5559,187.23466 643.53028,186.39429 643.47911,185.52983 C 643.42783,184.66554 643.40222,183.77553 643.40233,182.85985 C 643.29982,182.04673 643.22298,181.20794 643.17186,180.34348 C 643.12058,179.47919 643.09496,178.6404 643.09502,177.82712 L 643.09502,141.06168 L 656.97808,141.06168 L 656.97808,141.06168 z M 622.19594,186.82644 C 615.9915,186.82649 610.88117,189.34367 606.865,194.37787 C 602.84871,199.41219 600.84057,205.8959 600.84063,213.82908 C 600.84057,221.56053 602.77264,227.89215 606.63683,232.82401 C 610.50096,237.75587 615.53528,240.22177 621.73971,240.22177 C 628.04649,240.22177 633.2336,237.70464 637.30111,232.67038 C 641.36852,227.63613 643.40222,221.30604 643.40233,213.68005 C 643.40222,206.05112 641.36852,199.66827 637.30111,194.5315 C 633.2336,189.39485 628.19852,186.82649 622.19594,186.82644 L 622.19594,186.82644 z" id="text2396" style="font-size:27.87434387px;font-style:normal;font-variant:normal;font-weight:normal;font-stretch:normal;text-align:start;line-height:100%;writing-mode:lr-tb;text-anchor:start;fill:#062377;fill-opacity:1;stroke:none;stroke-width:1px;stroke-linecap:butt;stroke-linejoin:miter;stroke-opacity:1;font-family:Frutiger-Normal;-inkscape-font-specification:Frutiger-Normal"/>
    <text x="293.95438" y="468.49402" id="text2400" xml:space="preserve" style="font-size:24px;font-style:normal;font-variant:normal;font-weight:normal;font-stretch:normal;text-align:start;line-height:100%;writing-mode:lr-tb;text-anchor:start;fill:#000000;fill-opacity:1;stroke:none;stroke-width:1px;stroke-linecap:butt;stroke-linejoin:miter;stroke-opacity:1;font-family:Frutiger-Normal;-inkscape-font-specification:Frutiger-Normal"><tspan x="293.95438" y="468.49402" id="tspan2402"/></text>
    <path d="M 226.38519,840.33846 C 226.38519,840.33846 302.10504,840.33846 302.10504,840.33846 C 313.2913,840.33846 321.62674,849.24052 320.7786,860.50565 C 320.7786,860.50565 314.53914,943.38042 314.53914,943.38042 C 313.53643,956.699 302.64063,967.64193 290.12985,967.64193 C 290.12985,967.64193 205.44484,967.64193 205.44484,967.64193 C 192.93401,967.64193 184.86768,956.699 187.30857,943.38042 C 187.30857,943.38042 202.49715,860.50565 202.49715,860.50565 C 204.56178,849.24052 215.19888,840.33846 226.38519,840.33846 C 226.38519,840.33846 226.38519,840.33846 226.38519,840.33846 M 501.5005,840.33846 C 501.5005,840.33846 577.22027,840.33846 577.22027,840.33846 C 588.40664,840.33846 599.01982,849.24052 601.05418,860.50565 C 601.05418,860.50565 616.02018,943.38042 616.02018,943.38042 C 618.42533,956.699 610.32961,967.64193 597.81878,967.64193 C 597.81878,967.64193 513.13376,967.64193 513.13376,967.64193 C 500.62296,967.64193 489.7566,956.699 488.78963,943.38042 C 488.78963,943.38042 482.77276,860.50565 482.77276,860.50565 C 481.95488,849.24052 490.31413,840.33846 501.5005,840.33846 C 501.5005,840.33846 501.5005,840.33846 501.5005,840.33846 M 363.95929,840.31274 C 352.77319,840.31274 343.32515,849.16784 342.70255,860.43138 C 342.70255,860.43138 338.12085,943.31776 338.12085,943.31776 C 337.38474,956.63491 346.79255,967.71073 359.30414,967.71078 C 359.30414,967.71078 444.01614,967.71078 444.01614,967.71078 C 456.52768,967.71078 465.96478,956.63508 465.2638,943.31776 C 465.2638,943.31776 460.9008,860.43138 460.9008,860.43138 C 460.30791,849.16773 450.88319,840.31274 439.69709,840.31274 C 439.69709,840.31274 363.95929,840.31274 363.95929,840.31274 C 363.95929,840.31274 363.95929,840.31274 363.95929,840.31274 M 401.727,856.94717 C 411.22665,856.94728 417.89601,860.31601 421.87732,866.98427 C 425.90734,873.73442 428.49847,881.1215 429.60581,889.46094 C 429.81871,891.35015 430.1056,893.36284 430.23635,895.35101 C 430.36748,897.34629 430.3306,899.29795 430.37444,901.13216 C 430.41619,902.884 430.54235,904.64657 430.50152,906.455 C 430.46047,908.26924 430.26186,910.13268 430.13428,912.00213 C 429.47846,920.72025 427.24324,928.75462 423.2176,936.19162 C 419.14007,943.72434 411.88893,947.56111 401.60084,947.56111 C 391.66423,947.56111 384.71131,943.90402 380.68912,936.55497 C 376.71667,929.29705 374.28859,921.33683 373.48149,912.69933 C 373.28227,910.55875 373.22536,908.32063 373.15525,906.1101 C 373.08536,903.90816 372.93928,901.77879 372.99292,899.7666 C 373.03938,898.02444 373.16433,896.32465 373.29727,894.50581 C 373.42983,892.69289 373.55751,890.75989 373.77079,888.95896 C 374.90101,880.7118 377.62978,873.28448 381.71503,866.66279 C 385.75178,860.12002 392.39077,856.94728 401.727,856.94717 C 401.727,856.94717 401.727,856.94717 401.727,856.94717 M 401.55372,866.50216 C 396.55728,866.50221 392.75231,869.34843 389.93335,875.08252 C 387.08489,880.87664 385.52049,889.12107 385.34722,900.10767 C 385.3169,902.03284 385.31876,904.37128 385.40479,906.97275 C 385.49121,909.58631 385.6485,912.19812 385.94782,914.971 C 386.64125,920.28383 388.13794,925.3339 390.46039,929.86941 C 392.80113,934.44054 396.55876,936.73673 401.7861,936.73673 C 407.27653,936.73673 411.52454,933.62064 414.28921,927.35962 C 417.02433,921.16536 418.30894,912.10557 418.15592,900.44897 C 418.00925,889.28575 416.46565,880.87664 413.63131,875.08252 C 410.82614,869.34843 406.79502,866.50221 401.55372,866.50216 C 401.55372,866.50216 401.55372,866.50216 401.55372,866.50216 M 261.63002,626.03748 C 252.67323,626.03748 244.46148,631.70535 243.14534,638.88824 C 243.14534,638.88824 233.62598,690.83986 233.62598,690.83986 C 232.12321,699.04105 238.73746,705.71468 248.52319,705.71473 C 248.52319,705.71473 314.77956,705.71473 314.77956,705.71473 C 324.56529,705.71473 332.90506,699.04094 333.52279,690.83986 C 333.52279,690.83986 337.4358,638.88824 337.4358,638.88824 C 337.9768,631.7054 331.23044,626.03748 322.2737,626.03748 C 322.2737,626.03748 261.63002,626.03748 261.63002,626.03748 C 261.63002,626.03748 261.63002,626.03748 261.63002,626.03748 M 292.69049,637.47506 C 292.69049,637.47506 305.99397,637.47506 305.99397,637.47506 C 305.99397,637.47506 302.0178,673.1406 302.0178,673.1406 C 302.0178,673.1406 310.98559,673.1406 310.98559,673.1406 C 310.98559,673.1406 310.3151,679.73947 310.3151,679.73947 C 310.3151,679.73947 301.28213,679.73947 301.28213,679.73947 C 301.28213,679.73947 299.87984,692.3175 299.87984,692.3175 C 299.87984,692.3175 290.04929,692.3175 290.04929,692.3175 C 290.04929,692.3175 291.5849,679.73947 291.5849,679.73947 C 291.5849,679.73947 259.7037,679.73947 259.7037,679.73947 C 259.7037,679.73947 260.73935,673.1406 260.73935,673.1406 C 260.73935,673.1406 292.69049,637.47506 292.69049,637.47506 C 292.69049,637.47506 292.69049,637.47506 292.69049,637.47506 M 297.45291,640.00177 C 297.37475,640.10635 297.33332,640.20224 297.28905,640.30601 C 297.24466,640.40989 297.20307,640.50736 297.12502,640.61042 C 296.2043,642.27737 294.97403,644.12877 293.37264,646.22897 C 291.76359,648.33929 289.17329,651.56062 285.58297,655.79024 C 285.58297,655.79024 278.01834,664.59598 278.01834,664.59598 C 277.85508,664.81539 277.60781,664.99211 277.40586,665.23927 C 277.20368,665.48665 277.00857,665.77108 276.77739,665.99098 C 276.52848,666.32194 276.24493,666.54884 276.00177,666.85161 C 275.75838,667.15454 275.58024,667.54536 275.34041,667.82175 C 274.53457,668.76195 273.78461,669.63888 272.98446,670.52764 C 272.18273,671.41826 271.23224,672.30373 270.36658,673.1406 C 270.36658,673.1406 272.60852,673.1406 272.60852,673.1406 C 272.60852,673.1406 292.39052,673.1406 292.39052,673.1406 C 292.39052,673.1406 295.03216,651.5037 295.03216,651.5037 C 295.1489,650.54719 295.29705,649.58061 295.51498,648.59997 C 295.73237,647.62156 295.94122,646.66292 296.12254,645.71522 C 296.21405,645.50511 296.27698,645.23332 296.33773,644.99695 C 296.39832,644.76079 296.51462,644.59189 296.54013,644.38222 C 296.69474,643.65021 296.88136,642.86681 297.0675,642.13562 C 297.25331,641.40575 297.29934,640.7294 297.45291,640.00177 C 297.45291,640.00177 297.45291,640.00177 297.45291,640.00177 M 481.94798,626.03748 C 472.99125,626.03748 466.10412,631.70535 466.62514,638.88824 C 466.62514,638.88824 470.3935,690.83986 470.3935,690.83986 C 470.98842,699.04105 479.44618,705.71468 489.23196,705.71473 C 489.23196,705.71473 555.48831,705.71473 555.48831,705.71473 C 565.27404,705.71473 571.9058,699.04094 570.42476,690.83986 C 570.42476,690.83986 561.04245,638.88824 561.04245,638.88824 C 559.74524,631.7054 551.54843,626.03748 542.5917,626.03748 C 542.5917,626.03748 481.94798,626.03748 481.94798,626.03748 C 481.94798,626.03748 481.94798,626.03748 481.94798,626.03748 M 518.48972,636.66955 C 519.33223,636.6696 520.09483,636.74425 520.90834,636.77014 C 521.72189,636.79619 522.59741,636.76861 523.4542,636.87079 C 524.82972,636.97461 526.15024,637.14214 527.57753,637.37425 C 529.00549,637.60658 530.53732,637.92094 532.01869,638.28199 C 532.01869,638.28199 531.85893,644.99695 531.85893,644.99695 C 530.54673,644.52627 529.19901,644.08323 527.97854,643.76837 C 526.75883,643.45384 525.63146,643.20964 524.43424,643.05328 C 523.637,642.94967 522.8068,642.90184 521.98394,642.84919 C 521.16113,642.79665 520.33296,642.74723 519.5483,642.74717 C 513.80634,642.74723 509.70513,644.3559 507.38273,647.67066 C 505.04266,651.01065 503.83713,654.75076 503.76899,658.84728 C 503.70813,659.49731 503.81573,660.13004 503.85349,660.75532 C 503.89125,661.38154 503.86498,662.0169 503.93838,662.67152 C 505.06187,660.81843 506.9496,659.40213 509.54724,658.3187 C 512.13856,657.2379 515.03152,656.63149 518.28065,656.63144 C 524.0467,656.63149 529.05288,658.34765 533.24507,661.60593 C 537.46785,664.88824 539.9702,669.05262 540.75393,674.23382 C 541.58954,679.75851 540.24133,684.33299 536.65577,687.89857 C 533.04219,691.49196 527.95747,693.3433 521.40003,693.3433 C 513.7388,693.3433 507.59832,690.86645 503.08875,686.09786 C 498.62533,681.37819 495.89322,674.55202 494.99916,665.77606 C 494.00712,656.03817 495.54519,648.8706 499.54303,643.9729 C 503.49687,639.12927 509.87025,636.6696 518.48972,636.66955 C 518.48972,636.66955 518.48972,636.66955 518.48972,636.66955 M 517.14529,662.99169 C 513.67324,662.99169 510.93379,664.03889 508.90285,666.09847 C 506.86253,668.16758 506.0441,670.88743 506.41145,674.12437 C 506.81376,677.66882 508.2172,680.57109 510.8806,682.96343 C 513.55797,685.36831 516.70417,686.54735 520.26734,686.54735 C 523.83047,686.54735 526.62321,685.44893 528.64088,683.18662 C 530.64858,680.93542 531.3946,678.10666 530.91254,674.67183 C 530.43399,671.26271 528.95169,668.49416 526.33621,666.31351 C 523.73332,664.14336 520.68455,662.99169 517.14529,662.99169 C 517.14529,662.99169 517.14529,662.99169 517.14529,662.99169 M 371.78897,626.03748 C 362.83224,626.03748 355.34571,631.70535 354.9487,638.88824 C 354.9487,638.88824 352.07698,690.83986 352.07698,690.83986 C 351.62365,699.04105 359.09179,705.71468 368.87757,705.71473 C 368.87757,705.71473 435.13395,705.71473 435.13395,705.71473 C 444.91962,705.71473 452.40544,699.04094 451.97379,690.83986 C 451.97379,690.83986 449.23911,638.88824 449.23911,638.88824 C 448.86103,631.7054 441.38944,626.03748 432.43271,626.03748 C 432.43271,626.03748 371.78897,626.03748 371.78897,626.03748 C 371.78897,626.03748 371.78897,626.03748 371.78897,626.03748 M 383.53654,637.37425 C 383.53654,637.37425 419.51513,637.37425 419.51513,637.37425 C 419.51513,637.37425 419.63056,643.56396 419.63056,643.56396 C 419.63056,643.56396 392.0724,643.56396 392.0724,643.56396 C 392.0724,643.56396 391.68946,653.3805 391.68946,653.3805 C 391.68037,654.0766 391.70462,654.77698 391.6622,655.47517 C 391.61973,656.17456 391.58049,656.93251 391.50524,657.57974 C 391.83876,657.47099 392.08368,657.31698 392.41643,657.2634 C 392.74903,657.20999 393.12152,657.2124 393.45416,657.15805 C 394.25136,656.99676 395.05577,656.89639 395.91837,656.84199 C 396.7808,656.78775 397.70787,656.73674 398.7682,656.73674 C 405.66387,656.73674 411.244,658.27169 415.53721,661.39314 C 419.86048,664.5366 422.19968,668.72818 422.30832,673.90556 C 422.42528,679.48339 419.99582,683.94501 415.22323,687.33507 C 410.41517,690.75032 403.96774,692.4314 395.76058,692.4314 C 394.72723,692.4314 393.66301,692.37623 392.66419,692.3175 C 391.66543,692.25883 390.66886,692.20542 389.70491,692.08988 C 388.39621,691.97254 387.04915,691.78329 385.67669,691.52124 C 384.305,691.25941 382.90036,690.90542 381.39524,690.49949 C 381.39524,690.49949 381.83981,682.96343 381.83981,682.96343 C 383.93919,683.76429 386.00408,684.32248 387.80858,684.75189 C 389.61477,685.18173 391.29907,685.47525 393.00768,685.64874 C 393.48607,685.64874 393.89884,685.73297 394.34358,685.76099 C 394.78825,685.78907 395.26911,685.76099 395.68073,685.76099 C 400.54029,685.76099 404.43327,684.6618 407.43262,682.51738 C 410.41802,680.38298 411.91619,677.60846 411.88417,674.23382 C 411.85122,670.77201 410.2911,668.11187 407.22689,666.09847 C 404.1762,664.09405 400.15861,663.09852 395.0844,663.09847 C 394.48325,663.09852 393.95675,663.07094 393.38893,663.09847 C 392.82105,663.12599 392.22877,663.15024 391.69209,663.20524 C 390.22309,663.31383 388.72076,663.57259 387.24579,663.84657 C 385.77,664.12076 384.2049,664.42364 382.52207,664.91752 C 382.52207,664.91752 383.53654,637.37425 383.53654,637.37425 C 383.53654,637.37425 383.53654,637.37425 383.53654,637.37425 M 245.95653,721.31757 C 236.00848,721.31757 226.75927,728.3147 225.13182,737.19651 C 225.13182,737.19651 213.27047,801.92938 213.27047,801.92938 C 211.38339,812.22803 218.6394,820.62466 229.62064,820.62466 C 229.62064,820.62466 303.97154,820.62466 303.97154,820.62466 C 314.95284,820.62466 324.37976,812.22819 325.15549,801.92938 C 325.15549,801.92938 330.0312,737.19651 330.0312,737.19651 C 330.70016,728.31465 323.26004,721.31757 313.31204,721.31757 C 313.31204,721.31757 245.95653,721.31757 245.95653,721.31757 C 245.95653,721.31757 245.95653,721.31757 245.95653,721.31757 M 254.7274,735.69719 C 254.7274,735.69719 300.82322,735.69719 300.82322,735.69719 C 300.82322,735.69719 300.01382,743.36712 300.01382,743.36712 C 300.01382,743.36712 264.69302,803.64045 264.69302,803.64045 C 264.69302,803.64045 252.47544,803.64045 252.47544,803.64045 C 252.47544,803.64045 281.40151,756.0764 281.40151,756.0764 C 281.67072,755.67835 281.78445,755.27351 281.97655,754.90737 C 282.16833,754.54167 282.41751,754.20251 282.67797,753.87057 C 282.7761,753.6724 282.89694,753.51877 283.02818,753.35299 C 283.15932,753.18733 283.28213,753.03381 283.37796,752.83591 C 284.38608,751.18542 285.47132,749.55847 286.54024,747.95079 C 287.60561,746.34847 288.67087,744.79891 289.79879,743.24042 C 289.29041,743.24042 288.74547,743.24042 288.2361,743.24042 C 287.72662,743.24042 287.18923,743.1771 286.6734,743.24042 C 286.16288,743.24048 285.74978,743.33445 285.23751,743.36712 C 284.72519,743.39985 284.18522,743.36718 283.67465,743.36712 C 283.67465,743.36712 253.55372,743.36712 253.55372,743.36712 C 253.55372,743.36712 254.7274,735.69719 254.7274,735.69719 C 254.7274,735.69719 254.7274,735.69719 254.7274,735.69719 M 490.65832,721.31757 C 480.71027,721.31757 473.11182,728.3147 473.7561,737.19651 C 473.7561,737.19651 478.45158,801.92938 478.45158,801.92938 C 479.19858,812.22803 488.75548,820.62466 499.73678,820.62466 C 499.73678,820.62466 574.08765,820.62466 574.08765,820.62466 C 585.06895,820.62466 592.34707,812.22819 590.48719,801.92938 C 590.48719,801.92938 578.79665,737.19651 578.79665,737.19651 C 577.19258,728.31465 567.96181,721.31757 558.01376,721.31757 C 558.01376,721.31757 490.65832,721.31757 490.65832,721.31757 C 490.65832,721.31757 490.65832,721.31757 490.65832,721.31757 M 525.08416,734.45127 C 533.08471,734.45138 539.66508,736.98055 544.65243,742.22787 C 549.69392,747.53222 553.02783,755.37996 554.60317,765.79409 C 556.51646,778.4441 555.24783,788.1451 550.92342,794.86 C 546.54181,801.66361 539.13371,805.21398 528.6915,805.21398 C 527.76389,805.21398 526.81066,805.10764 525.95551,805.0707 C 525.10036,805.03376 524.38033,805.00136 523.52223,804.92753 C 522.03555,804.78211 520.42059,804.54174 518.76107,804.2121 C 517.1026,803.88268 515.1731,803.36828 513.02606,802.7842 C 513.02606,802.7842 513.39855,793.59771 513.39855,793.59771 C 514.76077,794.1715 516.14138,794.70862 517.45342,795.14093 C 518.76644,795.57356 519.98319,795.90982 521.15637,796.12535 C 522.25518,796.34098 523.3021,796.43889 524.35062,796.54781 C 525.39924,796.65683 526.51381,796.68874 527.6633,796.68874 C 534.33742,796.68874 538.99054,794.50798 541.45863,790.1076 C 543.90565,785.74482 545.1513,780.9916 545.25971,775.83951 C 545.28221,774.93981 545.20028,774.13764 545.19229,773.27564 C 545.18424,772.41518 545.15677,771.48281 545.10631,770.59088 C 543.35561,773.06543 541.15499,774.86494 538.54329,776.11015 C 535.92502,777.35848 532.85085,778.00872 529.23513,778.00872 C 522.53233,778.00872 516.89079,775.93682 512.2333,771.79723 C 507.6138,767.69152 504.98546,762.37874 504.3292,755.94636 C 503.67485,749.53237 505.31943,744.34936 509.25192,740.33504 C 513.15237,736.35362 518.37933,734.45138 525.08416,734.45127 C 525.08416,734.45127 525.08416,734.45127 525.08416,734.45127 M 526.59738,741.97507 C 522.81988,741.97513 519.70959,743.21273 517.53513,745.78092 C 515.34917,748.36274 514.49314,751.64439 514.94898,755.68645 C 515.40855,759.76184 517.11431,763.21808 520.02839,765.9267 C 522.95835,768.65022 526.38673,769.92192 530.27237,769.92186 C 534.08265,769.92192 537.04687,768.64704 539.23348,766.05937 C 541.40871,763.48505 542.19699,760.21446 541.65555,756.33658 C 541.07174,752.15616 539.40982,748.78301 536.51298,746.03569 C 533.63223,743.3038 530.37482,741.97513 526.59738,741.97507 C 526.59738,741.97507 526.59738,741.97507 526.59738,741.97507 M 368.30745,721.31757 C 358.35935,721.31757 350.00546,728.3147 349.51453,737.19651 C 349.51453,737.19651 345.93631,801.92938 345.93631,801.92938 C 345.36706,812.22803 353.69742,820.62466 364.67871,820.62466 C 364.67871,820.62466 439.02961,820.62466 439.02961,820.62466 C 450.01085,820.62466 458.36342,812.22819 457.82138,801.92938 C 457.82138,801.92938 454.41391,737.19651 454.41391,737.19651 C 453.94641,728.31465 445.61091,721.31757 435.66291,721.31757 C 435.66291,721.31757 368.30745,721.31757 368.30745,721.31757 C 368.30745,721.31757 368.30745,721.31757 368.30745,721.31757 M 401.61589,734.45127 C 402.48035,734.45138 403.24919,734.51164 404.15015,734.57573 C 405.05111,734.63998 405.96143,734.82283 406.82676,734.94926 C 411.23207,735.65242 415.29027,737.17216 419.0154,739.57994 C 422.75891,741.99981 424.66405,745.48456 424.76278,750.00178 C 424.84641,753.83221 423.57515,757.05584 420.93055,759.73108 C 418.27146,762.42099 415.07929,764.43466 411.30179,765.9267 C 415.93406,767.28608 419.86611,769.61494 423.0643,772.73754 C 426.28224,775.87968 427.92074,779.86964 428.03846,784.7101 C 428.19888,791.30908 425.74671,796.32664 420.59101,799.79837 C 415.40039,803.29357 409.50699,805.0707 402.85645,805.0707 C 402.00447,805.0707 401.06531,805.00026 400.13814,804.92753 C 399.21102,804.85479 398.42296,804.85818 397.57159,804.78435 C 391.93591,804.0513 386.70139,802.00387 382.1406,798.80688 C 377.60773,795.62961 375.44388,791.08026 375.60161,785.26112 C 375.73668,780.27464 377.53094,776.35134 380.75841,773.27564 C 383.96628,770.21872 387.76134,767.9557 392.39974,766.45758 C 388.09448,765.64288 384.69851,763.64803 382.05216,760.64896 C 379.42174,757.66799 378.16657,754.22478 378.26711,750.25874 C 378.38992,745.415 380.44803,741.68594 384.48944,739.20279 C 388.51027,736.73241 392.83878,735.27446 397.53164,734.70018 C 398.25368,734.63609 398.99527,734.60785 399.64442,734.57573 C 400.29352,734.54371 400.96691,734.45138 401.61589,734.45127 C 401.61589,734.45127 401.61589,734.45127 401.61589,734.45127 M 400.32783,741.46986 C 399.92776,741.50243 399.4856,741.53105 399.05104,741.59612 C 396.5066,741.98498 394.15826,743.01587 392.06852,744.509 C 389.97231,746.0069 388.88965,747.89289 388.8532,750.3873 C 388.81949,752.69673 389.7841,754.77066 391.78803,756.46668 C 393.7988,758.16871 396.09909,759.50806 398.53543,760.64896 C 399.49605,761.11886 400.46214,761.59222 401.42483,761.96318 C 402.38818,762.33447 403.21641,762.67926 404.03172,763.01705 C 404.25343,762.88111 404.53293,762.75654 404.75579,762.62158 C 404.97849,762.48683 405.25777,762.36024 405.47926,762.22643 C 407.69724,760.81314 409.57978,759.0908 411.37497,757.11785 C 413.16298,755.15278 414.06613,752.89452 414.03871,750.3873 C 414.00993,747.76099 412.93673,745.78497 410.70075,744.25506 C 408.47166,742.72996 405.99219,741.85472 403.30573,741.59612 C 403.01544,741.59612 402.63989,741.50243 402.3131,741.46986 C 401.9863,741.43735 401.7525,741.46986 401.46227,741.46986 C 401.09886,741.46986 400.72785,741.43735 400.32783,741.46986 C 400.32783,741.46986 400.32783,741.46986 400.32783,741.46986 M 400.09561,770.32314 C 399.79394,770.46122 399.40744,770.72168 399.0714,770.85867 C 398.73525,770.99582 398.49532,771.05548 398.19293,771.26072 C 395.56574,772.63465 393.06224,774.44007 390.82183,776.51641 C 388.57216,778.60139 387.37101,781.14112 387.32384,784.15974 C 387.26303,788.04872 388.92785,791.101 392.10874,793.31766 C 395.30343,795.5439 398.79797,796.68874 402.70978,796.68874 C 402.787,796.68874 402.82099,796.68874 402.85963,796.68874 C 402.89821,796.68874 402.9345,796.68874 403.00942,796.68874 C 406.53938,796.6183 409.82606,795.53843 412.71956,793.59771 C 415.60201,791.66433 416.98979,789.00879 416.94322,785.53679 C 416.89413,781.88074 415.55675,779.01066 412.85984,776.92294 C 410.17398,774.84387 407.26269,773.10325 404.03861,771.79723 C 403.36686,771.52271 402.66594,771.23352 401.99271,770.99265 C 401.3197,770.75195 400.69271,770.52816 400.09561,770.32314 C 400.09561,770.32314 400.09561,770.32314 400.09561,770.32314 M 274.47623,547.94422 C 266.33196,547.94422 258.93622,552.70981 257.84989,558.6383 C 257.84989,558.6383 250.0415,601.25237 250.0415,601.25237 C 248.81659,607.93733 254.88907,613.3686 263.71402,613.36865 C 263.71402,613.36865 323.46528,613.36865 323.46528,613.36865 C 332.29028,613.36865 339.76696,607.93733 340.27052,601.25237 C 340.27052,601.25237 343.4802,558.6383 343.4802,558.6383 C 343.92674,552.70981 337.76314,547.94422 329.61886,547.94422 C 329.61886,547.94422 274.47623,547.94422 274.47623,547.94422 C 274.47623,547.94422 274.47623,547.94422 274.47623,547.94422 M 300.18282,557.47261 C 300.18282,557.47261 308.00824,557.47261 308.00824,557.47261 C 308.00824,557.47261 302.60106,602.45768 302.60106,602.45768 C 302.60106,602.45768 293.72324,602.45768 293.72324,602.45768 C 293.72324,602.45768 297.37442,574.54406 297.37442,574.54406 C 297.4904,573.65706 297.60106,572.81115 297.7138,571.94949 C 297.82622,571.08974 298.00387,570.1647 298.17901,569.2859 C 298.29334,568.41045 298.40247,567.57549 298.51362,566.72494 C 298.62445,565.87624 298.73287,565.04654 298.84611,564.18023 C 297.97667,564.91678 297.00341,565.56259 295.90422,566.21469 C 294.80322,566.86795 293.71361,567.5195 292.60916,568.17418 C 291.90457,568.52396 291.15111,568.91347 290.47049,569.2859 C 289.78916,569.65878 289.14702,570.04807 288.55977,570.40075 C 288.55977,570.40075 284.38559,566.21469 284.38559,566.21469 C 284.38559,566.21469 300.18282,557.47261 300.18282,557.47261 C 300.18282,557.47261 300.18282,557.47261 300.18282,557.47261 M 474.80888,547.94422 C 466.66455,547.94422 460.37403,552.70981 460.80409,558.6383 C 460.80409,558.6383 463.89517,601.25237 463.89517,601.25237 C 464.38002,607.93733 471.96485,613.3686 480.78985,613.36865 C 480.78985,613.36865 540.54108,613.36865 540.54108,613.36865 C 549.36603,613.36865 555.45279,607.93733 554.24557,601.25237 C 554.24557,601.25237 546.54958,558.6383 546.54958,558.6383 C 545.47891,552.70981 538.09576,547.94422 529.95149,547.94422 C 529.95149,547.94422 474.80888,547.94422 474.80888,547.94422 C 474.80888,547.94422 474.80888,547.94422 474.80888,547.94422 M 501.2708,556.89105 C 501.38934,556.89111 501.49803,556.89111 501.61576,556.89105 C 501.73343,556.89111 501.89964,556.89111 502.07576,556.89105 C 506.85547,556.97544 511.28768,557.89118 515.56207,559.55661 C 519.85446,561.22915 522.36464,564.16704 522.98752,568.34499 C 523.38666,571.02253 522.40186,573.24335 520.00229,575.15183 C 517.59117,577.06934 514.2231,578.19776 509.96669,578.46725 C 514.5262,578.64665 518.35854,579.80068 521.44923,581.89831 C 524.55574,584.00677 526.32193,586.7096 526.8175,590.01773 C 527.40793,593.95915 525.83292,597.12044 522.05722,599.49703 C 518.2598,601.88724 512.87659,603.10815 505.89743,603.10815 C 504.77541,603.10815 503.63933,603.08636 502.47857,603.01516 C 501.31792,602.94401 500.11288,602.8322 498.91758,602.73637 C 497.34482,602.59413 495.80943,602.34746 494.22407,602.08645 C 492.63965,601.82567 491.10393,601.58524 489.64019,601.25237 C 489.64019,601.25237 489.34662,594.91265 489.34662,594.91265 C 491.70853,595.65987 493.9432,596.31838 495.93782,596.74035 C 497.93447,597.1627 499.89418,597.38047 501.82225,597.47367 C 502.32467,597.52096 502.78615,597.54175 503.28397,597.5654 C 503.78174,597.58909 504.25094,597.65718 504.74602,597.65718 C 508.77024,597.65718 511.98253,596.82261 514.34269,595.27753 C 516.69399,593.73815 517.724,591.83383 517.39776,589.47739 C 517.02258,586.76827 515.50493,584.82908 512.78913,583.66903 C 510.08102,582.51238 507.09245,581.77413 503.95649,581.4568 C 502.97475,581.36721 502.00565,581.32584 501.0898,581.28036 C 500.17407,581.23488 499.32171,581.19213 498.4717,581.19213 C 498.34943,581.19213 498.2374,581.19213 498.11612,581.19213 C 497.99484,581.19213 497.88095,581.19213 497.76054,581.19213 C 497.45679,581.19213 497.14658,581.19213 496.81235,581.19213 C 496.47806,581.19213 496.05604,581.23488 495.63708,581.28036 C 495.63708,581.28036 495.01218,575.76054 495.01218,575.76054 C 496.15828,575.76059 497.48618,575.80542 498.8975,575.76054 C 500.30865,575.71571 501.73151,575.63274 503.22153,575.49953 C 506.19433,575.18856 508.9468,574.50268 511.31137,573.50425 C 513.67001,572.50823 514.57726,570.79951 514.24992,568.43042 C 513.98443,566.50963 512.74984,564.97041 510.3564,563.75766 C 507.97015,562.54868 504.98333,561.9038 501.42847,561.90374 C 500.71786,561.9038 500.0049,561.96619 499.35558,561.98781 C 498.70627,562.00954 498.04897,562.07067 497.40797,562.15605 C 495.88189,562.28494 494.44452,562.50588 492.96907,562.82961 C 491.4924,563.15372 489.90568,563.57694 488.23774,564.09567 C 488.23774,564.09567 486.98328,558.80511 486.98328,558.80511 C 488.07349,558.50673 489.25308,558.18519 490.34992,557.9718 C 491.44621,557.75857 492.47557,557.64287 493.51735,557.47261 C 494.73481,557.30251 495.9798,557.14221 497.26562,557.05716 C 498.55117,556.97216 499.91777,556.89111 501.2708,556.89105 C 501.2708,556.89105 501.2708,556.89105 501.2708,556.89105 M 374.64253,547.94422 C 366.49825,547.94422 359.71232,552.70981 359.3846,558.6383 C 359.3846,558.6383 357.02903,601.25237 357.02903,601.25237 C 356.65955,607.93733 363.42693,613.3686 372.25193,613.36865 C 372.25193,613.36865 432.00319,613.36865 432.00319,613.36865 C 440.82814,613.36865 447.60991,607.93733 447.25806,601.25237 C 447.25806,601.25237 445.0149,558.6383 445.0149,558.6383 C 444.70284,552.70981 437.92943,547.94422 429.78516,547.94422 C 429.78516,547.94422 374.64253,547.94422 374.64253,547.94422 C 374.64253,547.94422 374.64253,547.94422 374.64253,547.94422 M 400.41846,557.22326 C 406.19037,557.22331 410.93018,558.29585 414.49981,560.47705 C 418.08915,562.6704 419.91811,565.49565 419.99172,569.02906 C 419.99812,569.3368 419.91772,569.68625 419.89446,569.97161 C 419.87109,570.25725 419.84915,570.52296 419.79524,570.83038 C 419.48465,573.30285 418.18974,575.93671 415.82028,578.64255 C 413.43477,581.36656 409.66778,584.6435 404.49243,588.57845 C 402.10359,590.37556 399.89109,591.92857 397.88415,593.27453 C 395.87053,594.62493 393.87082,595.84546 391.94083,596.92353 C 391.8149,597.01799 391.73067,597.10468 391.57453,597.19849 C 391.41833,597.29235 391.27357,597.38047 391.0871,597.47367 C 392.14175,597.28589 393.11883,597.22213 394.23324,597.19849 C 395.34754,597.17485 396.50294,597.19854 397.61701,597.19849 C 397.61701,597.19849 421.90786,597.19849 421.90786,597.19849 C 421.90786,597.19849 422.03204,602.73637 422.03204,602.73637 C 422.03204,602.73637 382.2511,602.73637 382.2511,602.73637 C 382.2511,602.73637 382.42892,595.64274 382.42892,595.64274 C 383.99534,594.66193 385.9522,593.4442 388.16459,592.00497 C 390.36932,590.57072 392.59042,589.02351 394.93728,587.32323 C 396.65815,586.08858 398.37535,584.7679 400.08729,583.40294 C 401.79344,582.04258 403.32187,580.65096 404.7148,579.25651 C 406.52389,577.50751 408.03717,575.73542 409.16974,574.0238 C 410.29756,572.31946 410.78416,570.78068 410.7702,569.2859 C 410.75094,567.23053 409.68223,565.50228 407.4729,564.18023 C 405.27091,562.86255 402.50613,562.24022 399.12706,562.24017 C 396.93459,562.24022 394.71875,562.48087 392.51779,562.99817 C 390.31399,563.51624 387.97118,564.32564 385.51239,565.36573 C 385.51239,565.36573 384.71219,559.80743 384.71219,559.80743 C 386.67419,559.2094 388.47644,558.66769 390.04647,558.30488 C 391.61514,557.94257 393.13191,557.72738 394.54755,557.55574 C 395.49295,557.4285 396.45461,557.34865 397.42672,557.30639 C 398.39861,557.2642 399.35786,557.22331 400.41846,557.22326 C 400.41846,557.22326 400.41846,557.22326 400.41846,557.22326" id="rect2404" style="fill:#062377;fill-opacity:1;fill-rule:nonzero;stroke:none;stroke-width:0.5;stroke-linecap:round;stroke-linejoin:miter;stroke-miterlimit:4;stroke-opacity:1"/>
    <path d="M 521.68818,493.50463 L 572.57602,493.50463 L 701.58175,1019.9083 L 101.73452,1019.9083 L 234.64948,493.50463 L 280.29121,493.50463" id="rect3266" style="fill:none;fill-opacity:1;fill-rule:nonzero;stroke:#062377;stroke-width:10.94594002;stroke-linecap:round;stroke-linejoin:miter;stroke-miterlimit:4;stroke-dasharray:none;stroke-opacity:1"/>
    <path d="M 302.97366,308.93841 C 288.12478,308.93841 275.95087,320.94129 275.95087,335.79017 L 275.95087,535.21152 L 286.89681,535.21152 L 286.89681,335.79017 C 286.89681,326.81598 293.99946,319.88435 302.97366,319.88435 L 333.41705,319.88435 L 333.41705,477.06121 L 296.30347,477.06121 L 354.11172,535.21152 L 449.20457,535.21152 L 507.01282,477.06121 L 469.89924,477.06121 L 469.89924,319.88435 L 500.34263,319.88435 C 509.31683,319.88435 516.41946,326.81598 516.41946,335.79017 L 516.41946,535.21152 L 527.3654,535.21152 L 527.3654,335.79017 C 527.3654,320.94129 515.19155,308.93841 500.34263,308.93841 L 302.97366,308.93841 z" id="rect3583" style="opacity:1;fill:#3ab1d0;fill-opacity:1;fill-rule:nonzero;stroke:none;stroke-width:2;stroke-linecap:round;stroke-linejoin:miter;stroke-miterlimit:4;stroke-dasharray:none;stroke-opacity:1"/>
  </g>
</svg>