<?xml version="1.0" encoding="UTF-8" standalone="no"?>
<svg
   xmlns:dc="http://purl.org/dc/elements/1.1/"
   xmlns:cc="http://creativecommons.org/ns#"
   xmlns:rdf="http://www.w3.org/1999/02/22-rdf-syntax-ns#"
   xmlns:svg="http://www.w3.org/2000/svg"
   xmlns="http://www.w3.org/2000/svg"
   xmlns:sodipodi="http://sodipodi.sourceforge.net/DTD/sodipodi-0.dtd"
   xmlns:inkscape="http://www.inkscape.org/namespaces/inkscape"
   height="16"
   width="16"
   viewBox="0 0 16 16"
   version="1.1"
   id="svg6"
   sodipodi:docname="nextcloud-icon.svg"
   inkscape:version="0.92.1 r15371">
  <metadata
     id="metadata12">
    <rdf:RDF>
      <cc:Work
         rdf:about="">
        <dc:format>image/svg+xml</dc:format>
        <dc:type
           rdf:resource="http://purl.org/dc/dcmitype/StillImage" />
        <dc:title></dc:title>
      </cc:Work>
    </rdf:RDF>
  </metadata>
  <defs
     id="defs10" />
  <sodipodi:namedview
     pagecolor="#ffffff"
     bordercolor="#666666"
     borderopacity="1"
     objecttolerance="10"
     gridtolerance="10"
     guidetolerance="10"
     inkscape:pageopacity="0"
     inkscape:pageshadow="2"
     inkscape:window-width="1920"
     inkscape:window-height="1046"
     id="namedview8"
     showgrid="false"
     inkscape:zoom="7.375"
     inkscape:cx="-13.694915"
     inkscape:cy="16"
     inkscape:window-x="0"
     inkscape:window-y="34"
     inkscape:window-maximized="1"
     inkscape:current-layer="svg6" />
  <rect
     rx="50"
     ry="50"
     height="16"
     width="16"
     id="rect2"
     x="0"
     y="0"
     style="fill:#0082c9;stroke-width:0.5" />
  <path
     style="color:#000000;text-indent:0;text-decoration:none;text-decoration-line:none;text-decoration-style:solid;text-decoration-color:#000000;text-transform:none;white-space:normal;isolation:auto;mix-blend-mode:normal;fill:#ffffff;stroke-width:0.5"
     d="m 8.0115,4.671 c -1.563,0 -2.875,1.07 -3.276,2.51 -0.35,-0.77 -1.12,-1.316 -2.015,-1.316 -1.218,0 -2.22,1.002 -2.22,2.22 0,1.219 1.0015,2.221 2.22,2.221 0.895,0 1.665,-0.546 2.015,-1.316 0.401,1.44 1.7135,2.51 3.2765,2.51 1.555,0 2.86,-1.0585 3.269,-2.486 0.3565,0.756 1.115,1.292 2,1.292 1.2185,0 2.22,-1.002 2.22,-2.221 0,-1.2185 -1.002,-2.22 -2.22,-2.22 -0.885,0 -1.644,0.536 -2,1.292 C 10.872,5.7295 9.567,4.671 8.0125,4.671 Z m 0,1.3035 A 2.1015,2.1015 0 0 1 10.123,8.0845 2.1015,2.1015 0 0 1 8.0115,10.196 2.1015,2.1015 0 0 1 5.9,8.085 2.1015,2.1015 0 0 1 8.0115,5.975 Z M 2.72,7.168 c 0.514,0 0.917,0.4025 0.917,0.917 A 0.9075,0.9075 0 0 1 2.72,9.0025 0.9075,0.9075 0 0 1 1.803,8.0855 C 1.803,7.5715 2.206,7.169 2.72,7.169 Z m 10.56,0 c 0.5135,0 0.9165,0.4025 0.917,0.917 0,0.515 -0.403,0.9175 -0.9175,0.9175 A 0.9075,0.9075 0 0 1 12.362,8.0855 c 0,-0.514 0.403,-0.9165 0.917,-0.9165 z"
     id="path4"
     inkscape:connector-curvature="0" />
</svg>
