<?xml version="1.0" encoding="UTF-8" standalone="no"?>
<svg
   xmlns:dc="http://purl.org/dc/elements/1.1/"
   xmlns:cc="http://creativecommons.org/ns#"
   xmlns:rdf="http://www.w3.org/1999/02/22-rdf-syntax-ns#"
   xmlns:svg="http://www.w3.org/2000/svg"
   xmlns="http://www.w3.org/2000/svg"
   xmlns:sodipodi="http://sodipodi.sourceforge.net/DTD/sodipodi-0.dtd"
   xmlns:inkscape="http://www.inkscape.org/namespaces/inkscape"
   xml:space="preserve"
   height="360"
   viewBox="0 0 360.00001 359.99396"
   width="360"
   version="1.1"
   y="0px"
   x="0px"
   enable-background="new 0 0 595.275 311.111"
   id="svg2"
   inkscape:version="0.48.3.1 r9886"
   sodipodi:docname="owncloud.svg"><metadata
   id="metadata10"><rdf:RDF><cc:Work
       rdf:about=""><dc:format>image/svg+xml</dc:format><dc:type
         rdf:resource="http://purl.org/dc/dcmitype/StillImage" /></cc:Work></rdf:RDF></metadata><defs
   id="defs8" /><sodipodi:namedview
   pagecolor="#ffffff"
   bordercolor="#666666"
   borderopacity="1"
   objecttolerance="10"
   gridtolerance="10"
   guidetolerance="10"
   inkscape:pageopacity="0"
   inkscape:pageshadow="2"
   inkscape:window-width="1366"
   inkscape:window-height="744"
   id="namedview6"
   showgrid="false"
   fit-margin-top="0"
   fit-margin-left="0"
   fit-margin-right="0"
   fit-margin-bottom="0"
   inkscape:zoom="1.168"
   inkscape:cx="271.60909"
   inkscape:cy="243.66263"
   inkscape:window-x="0"
   inkscape:window-y="24"
   inkscape:window-maximized="1"
   inkscape:current-layer="svg2" />
<path
   style="text-indent:0;text-transform:none;block-progression:tb;color:#000000;fill:#ffffff;enable-background:accumulate"
   d="m 162.99276,75.36805 c -26.79636,0 -48.44372,21.64853 -48.44372,48.44371 0,11.04537 3.67799,21.21111 9.87899,29.35181 13.45206,-15.56984 33.30655,-25.45667 55.47355,-25.45667 10.84536,0 21.12982,2.41503 30.39591,6.64916 0.7503,-3.39312 1.13989,-6.92187 1.13989,-10.54383 0.0238,-26.79398 -21.64497,-48.44371 -48.43896,-48.44371 z M 99.72891,97.78536 c -13.95456,0 -25.17296,11.31259 -25.17296,25.26596 0,4.51804 1.16564,8.7872 3.22958,12.44348 8.42078,-4.75021 18.156,-7.50423 28.49602,-7.50423 0.99793,0 1.95914,0.0405 2.94469,0.095 -0.11148,-1.41462 -0.19015,-2.83148 -0.19015,-4.2744 0,-7.77241 1.68811,-15.16745 4.65437,-21.84759 -3.99382,-2.6782 -8.77908,-4.17953 -13.96338,-4.17953 z m 119.49548,17.38296 c -1.03092,0 -2.02467,0.12655 -3.03961,0.18998 0.43907,2.76831 0.75991,5.56357 0.75991,8.45393 0,4.49848 -0.57211,8.83916 -1.6148,13.01344 12.22512,6.76548 22.37749,16.88855 29.06575,29.16111 6.93808,-3.61195 14.67781,-5.90875 22.8924,-6.45917 -2.11705,-24.82734 -22.68573,-44.36025 -48.06468,-44.36025 z m -39.32565,18.04803 c -37.4949,0 -67.82169,30.32441 -67.82169,67.82168 0,37.49489 30.32441,67.82168 67.82169,67.82168 37.49725,0 67.82167,-30.32917 67.82167,-67.82168 0,-37.49727 -30.3268,-67.82168 -67.82167,-67.82168 z m -73.61673,0.28496 c -29.08959,0 -52.62491,23.53461 -52.62491,52.62491 0,17.12432 8.15906,32.28389 20.80253,41.89064 5.33018,-10.28065 16.03587,-17.28808 28.40066,-17.28808 1.49454,0 2.92898,0.18114 4.36952,0.37995 -0.45218,-3.28989 -0.66492,-6.65559 -0.66492,-10.06896 0,-16.31954 5.31209,-31.41142 14.34336,-43.59982 -5.40597,-6.76453 -9.27465,-14.89259 -10.92379,-23.74724 -1.22216,-0.0846 -2.46079,-0.18998 -3.70466,-0.18998 z m 164.91175,31.34468 c -8.83295,0 -17.10691,2.25505 -24.41255,6.07942 4.14805,9.18838 6.45913,19.3832 6.45913,30.11224 0,20.08786 -8.07658,38.32922 -21.18251,51.57842 9.6282,10.68923 23.59756,17.38296 39.13497,17.38296 29.0896,0 52.6249,-23.53461 52.6249,-52.62492 0,-29.0903 -23.53458,-52.52955 -52.6249,-52.52955 z M 48.53907,171.78024 C 21.7427,171.78024 0,193.33295 0,220.1286 c 0,26.79565 21.7427,48.53907 48.53907,48.53907 10.19912,0 19.64711,-3.17761 27.45191,-8.54904 -3.22506,-5.01148 -5.12948,-11.0027 -5.12948,-17.38296 0,-3.31159 0.48863,-6.49301 1.42483,-9.499 -14.6113,-10.5593 -24.12652,-27.74273 -24.12652,-47.11355 0,-4.92208 0.64864,-9.68135 1.80483,-14.24848 -0.47993,-0.014 -0.9415,-0.095 -1.42485,-0.095 z m 284.86489,41.60457 c -1.42955,0 -2.81266,0.16285 -4.17953,0.37996 0.0754,1.2083 0.0948,2.38235 0.0948,3.60956 0,15.45088 -6.09635,29.47338 -15.95816,39.89538 4.85175,5.642 11.97813,9.21389 20.04279,9.21389 14.68974,0 26.59615,-11.81224 26.59615,-26.50077 0,-14.68974 -11.90736,-26.59613 -26.59615,-26.59613 z m -230.53795,2.84961 c -14.689,0 -26.50315,11.81295 -26.50315,26.50077 0,14.68902 11.81293,26.59613 26.50315,26.59613 11.25919,0 20.81611,-7.02555 24.69624,-16.9081 -9.46988,-9.64488 -16.27567,-21.94937 -19.28284,-35.62122 -1.75977,-0.36391 -3.54591,-0.56995 -5.41433,-0.56995 z"
   id="path4"
   inkscape:connector-curvature="0"
   sodipodi:nodetypes="cscscccccscscscccccscccccssssscscscsccccccscsscccsscscscccccscsscccsscccc" />
</svg>