<?xml version="1.0" encoding="UTF-8" standalone="no"?>
<svg
   xmlns:dc="http://purl.org/dc/elements/1.1/"
   xmlns:cc="http://creativecommons.org/ns#"
   xmlns:rdf="http://www.w3.org/1999/02/22-rdf-syntax-ns#"
   xmlns:svg="http://www.w3.org/2000/svg"
   xmlns="http://www.w3.org/2000/svg"
   xmlns:sodipodi="http://sodipodi.sourceforge.net/DTD/sodipodi-0.dtd"
   xmlns:inkscape="http://www.inkscape.org/namespaces/inkscape"
   version="1.1"
   width="24"
   height="24"
   viewBox="0 0 24 24"
   id="svg4688"
   inkscape:version="0.91 r13725"
   sodipodi:docname="food-white.svg">
  <metadata
     id="metadata4696">
    <rdf:RDF>
      <cc:Work
         rdf:about="">
        <dc:format>image/svg+xml</dc:format>
        <dc:type
           rdf:resource="http://purl.org/dc/dcmitype/StillImage" />
        <dc:title></dc:title>
      </cc:Work>
    </rdf:RDF>
  </metadata>
  <defs
     id="defs4694" />
  <sodipodi:namedview
     pagecolor="#ffffff"
     bordercolor="#666666"
     borderopacity="1"
     objecttolerance="10"
     gridtolerance="10"
     guidetolerance="10"
     inkscape:pageopacity="0"
     inkscape:pageshadow="2"
     inkscape:window-width="640"
     inkscape:window-height="480"
     id="namedview4692"
     showgrid="false"
     inkscape:zoom="26.625"
     inkscape:cx="2.1596244"
     inkscape:cy="12"
     inkscape:current-layer="svg4688" />
  <path
     d="M15.5,21L14,8H16.23L15.1,3.46L16.84,3L18.09,8H22L20.5,21H15.5M5,11H10A3,3 0 0,1 13,14H2A3,3 0 0,1 5,11M13,18A3,3 0 0,1 10,21H5A3,3 0 0,1 2,18H13M3,15H8L9.5,16.5L11,15H12A1,1 0 0,1 13,16A1,1 0 0,1 12,17H3A1,1 0 0,1 2,16A1,1 0 0,1 3,15Z"
     id="path4690"
     style="fill:#ffffff;fill-opacity:1" />
</svg>
