<?xml version="1.0" encoding="UTF-8" standalone="no"?>
<svg
   xmlns:dc="http://purl.org/dc/elements/1.1/"
   xmlns:cc="http://creativecommons.org/ns#"
   xmlns:rdf="http://www.w3.org/1999/02/22-rdf-syntax-ns#"
   xmlns:svg="http://www.w3.org/2000/svg"
   xmlns="http://www.w3.org/2000/svg"
   xmlns:sodipodi="http://sodipodi.sourceforge.net/DTD/sodipodi-0.dtd"
   xmlns:inkscape="http://www.inkscape.org/namespaces/inkscape"
   version="1.1"
   width="24"
   height="24"
   viewBox="0 0 24 24"
   id="svg2"
   inkscape:version="0.91 r13725"
   sodipodi:docname="white-balance-sunny-white.svg">
  <metadata
     id="metadata10">
    <rdf:RDF>
      <cc:Work
         rdf:about="">
        <dc:format>image/svg+xml</dc:format>
        <dc:type
           rdf:resource="http://purl.org/dc/dcmitype/StillImage" />
        <dc:title></dc:title>
      </cc:Work>
    </rdf:RDF>
  </metadata>
  <defs
     id="defs8" />
  <sodipodi:namedview
     pagecolor="#ffffff"
     bordercolor="#666666"
     borderopacity="1"
     objecttolerance="10"
     gridtolerance="10"
     guidetolerance="10"
     inkscape:pageopacity="0"
     inkscape:pageshadow="2"
     inkscape:window-width="640"
     inkscape:window-height="480"
     id="namedview6"
     showgrid="false"
     inkscape:zoom="26.625"
     inkscape:cx="2.1596244"
     inkscape:cy="12"
     inkscape:current-layer="svg2" />
  <path
     d="M3.55,18.54L4.96,19.95L6.76,18.16L5.34,16.74M11,22.45C11.32,22.45 13,22.45 13,22.45V19.5H11M12,5.5A6,6 0 0,0 6,11.5A6,6 0 0,0 12,17.5A6,6 0 0,0 18,11.5C18,8.18 15.31,5.5 12,5.5M20,12.5H23V10.5H20M17.24,18.16L19.04,19.95L20.45,18.54L18.66,16.74M20.45,4.46L19.04,3.05L17.24,4.84L18.66,6.26M13,0.55H11V3.5H13M4,10.5H1V12.5H4M6.76,4.84L4.96,3.05L3.55,4.46L5.34,6.26L6.76,4.84Z"
     id="path4"
     style="fill:#ffffff;fill-opacity:1" />
</svg>
