<?xml version="1.0" encoding="UTF-8" standalone="no"?>
<svg
   xmlns:dc="http://purl.org/dc/elements/1.1/"
   xmlns:cc="http://creativecommons.org/ns#"
   xmlns:rdf="http://www.w3.org/1999/02/22-rdf-syntax-ns#"
   xmlns:svg="http://www.w3.org/2000/svg"
   xmlns="http://www.w3.org/2000/svg"
   xmlns:xlink="http://www.w3.org/1999/xlink"
   xmlns:sodipodi="http://sodipodi.sourceforge.net/DTD/sodipodi-0.dtd"
   xmlns:inkscape="http://www.inkscape.org/namespaces/inkscape"
   enable-background="new 0 0 595.275 311.111"
   xml:space="preserve"
   height="328.56784"
   width="402"
   version="1.1"
   y="0px"
   x="0px"
   viewBox="0 0 402.00002 328.56233"
   id="svg2982"
   inkscape:version="0.48.4 r9939"
   sodipodi:docname="owncloud-conf.svg"
   inkscape:export-filename="ownCloud Contributor Conference logo.png"
   inkscape:export-xdpi="90"
   inkscape:export-ydpi="90"><metadata
     id="metadata2990"><rdf:RDF><cc:Work
         rdf:about=""><dc:format>image/svg+xml</dc:format><dc:type
           rdf:resource="http://purl.org/dc/dcmitype/StillImage" /><dc:title /></cc:Work></rdf:RDF></metadata><defs
     id="defs2988"><linearGradient
       inkscape:collect="always"
       xlink:href="#linearGradient3763"
       id="linearGradient3822"
       gradientUnits="userSpaceOnUse"
       gradientTransform="translate(8,7)"
       x1="59.882252"
       y1="-7.5668597"
       x2="59.882252"
       y2="133.9725" /><linearGradient
       id="linearGradient3763"><stop
         style="stop-color:#35537a;stop-opacity:1;"
         offset="0"
         id="stop3765" /><stop
         style="stop-color:#1d2d44;stop-opacity:1;"
         offset="1"
         id="stop3767" /></linearGradient><clipPath
       clipPathUnits="userSpaceOnUse"
       id="clipPath3846"><rect
         style="fill:url(#linearGradient3850);fill-opacity:1;stroke:none"
         id="rect3848"
         width="144"
         height="144"
         x="0"
         y="0"
         rx="20"
         ry="20" /></clipPath><linearGradient
       id="linearGradient3807"><stop
         style="stop-color:#ffffff;stop-opacity:1;"
         offset="0"
         id="stop3809" /><stop
         style="stop-color:#e6e6e6;stop-opacity:1;"
         offset="1"
         id="stop3811" /></linearGradient><linearGradient
       id="linearGradient3807-6"><stop
         style="stop-color:#ffffff;stop-opacity:1;"
         offset="0"
         id="stop3809-5" /><stop
         style="stop-color:#e6e6e6;stop-opacity:1;"
         offset="1"
         id="stop3811-1" /></linearGradient></defs><sodipodi:namedview
     pagecolor="#ffffff"
     bordercolor="#666666"
     borderopacity="1"
     objecttolerance="10"
     gridtolerance="10"
     guidetolerance="10"
     inkscape:pageopacity="0"
     inkscape:pageshadow="2"
     inkscape:window-width="1920"
     inkscape:window-height="1046"
     id="namedview2986"
     showgrid="false"
     inkscape:zoom="1.2982481"
     inkscape:cx="225.78879"
     inkscape:cy="89.311036"
     inkscape:window-x="0"
     inkscape:window-y="34"
     inkscape:window-maximized="1"
     inkscape:current-layer="svg2982"
     fit-margin-top="1"
     fit-margin-left="1"
     fit-margin-right="1"
     fit-margin-bottom="1" /><flowRoot
     xml:space="preserve"
     id="flowRoot3824"
     style="font-size:40px;font-style:normal;font-weight:normal;line-height:125%;letter-spacing:0px;word-spacing:0px;fill:#000000;fill-opacity:1;stroke:none;font-family:Sans"
     transform="matrix(1.5964081,0,0,1.5964081,-1722.6952,990.76802)"><flowRegion
       id="flowRegion3826"><rect
         id="rect3828"
         width="286.49237"
         height="147.05882"
         x="8.7145967"
         y="148.73109" /></flowRegion><flowPara
       id="flowPara3830" /></flowRoot><flowRoot
     style="font-size:40px;font-style:normal;font-weight:normal;line-height:125%;letter-spacing:0px;word-spacing:0px;fill:#000000;fill-opacity:1;stroke:none;font-family:Sans"
     id="flowRoot3879"
     xml:space="preserve"
     transform="matrix(1.5964081,0,0,1.5964081,-860.63471,990.76962)"><flowRegion
       id="flowRegion3881"><rect
         y="148.73109"
         x="8.7145967"
         height="147.05882"
         width="286.49237"
         id="rect3883" /></flowRegion><flowPara
       id="flowPara3885" /></flowRoot><path
     inkscape:connector-curvature="0"
     style="text-indent:0;text-transform:none;block-progression:tb;color:#000000;fill:#ffffff;enable-background:accumulate"
     d="m 241.9405,0.99655269 c -17.94522,0 -32.44221,14.49778431 -32.44221,32.44220831 0,7.39696 2.4631,14.20484 6.61584,19.65658 9.00869,-10.42695 22.30501,-17.04805 37.15001,-17.04805 7.26302,0 14.1504,1.61733 20.3558,4.45286 0.50239,-2.27233 0.7634,-4.63549 0.7634,-7.06107 0.016,-17.943624 -14.49538,-32.44220831 -32.43901,-32.44220831 z M 199.57342,16.009177 c -9.34521,0 -16.85807,7.575914 -16.85807,16.920324 0,3.02568 0.78065,5.88468 2.16282,8.33326 5.63931,-3.18117 12.15888,-5.0255 19.08346,-5.0255 0.66826,0 1.31209,0.0271 1.97204,0.0635 -0.075,-0.94735 -0.12771,-1.89621 -0.12771,-2.86252 0,-5.20508 1.13057,-10.15746 3.11699,-14.63108 -2.67462,-1.793556 -5.87926,-2.79898 -9.35112,-2.79898 z m 80.02475,11.641164 c -0.69044,0 -1.35583,0.0848 -2.03558,0.12724 0.29406,1.85391 0.50894,3.72585 0.50894,5.6615 0,3.01258 -0.38314,5.91948 -1.08141,8.71495 8.18702,4.53077 14.98596,11.31007 19.46501,19.52887 4.64634,-2.41888 9.82956,-3.95703 15.33078,-4.32564 -1.41777,-16.62659 -15.19238,-29.70756 -32.18838,-29.70756 z m -26.33595,12.08657 c -25.10989,0 -45.41941,20.30791 -45.41941,45.41941 0,25.109899 20.30792,45.419409 45.41941,45.419409 25.11151,0 45.41942,-20.31111 45.41942,-45.419409 0,-25.1115 -20.30951,-45.41941 -45.41942,-45.41941 z m -49.30027,0.19083 c -19.48097,0 -35.2423,15.76086 -35.2423,35.24231 0,11.46796 5.46402,21.62016 13.93121,28.053679 3.56957,-6.884829 10.73903,-11.577629 19.0196,-11.577629 1.00095,0 1.96151,0.12132 2.92622,0.25445 -0.30283,-2.2032 -0.44523,-4.45717 -0.44523,-6.74307 0,-10.92901 3.55743,-21.03586 9.60558,-29.1983 -3.62034,-4.53013 -6.21114,-9.9734 -7.31554,-15.90326 -0.81848,-0.0566 -1.64797,-0.12723 -2.48098,-0.12723 z m 110.43951,20.99117 c -5.91533,0 -11.4563,1.51019 -16.34881,4.07132 2.77791,6.15336 4.32563,12.98072 4.32563,20.16583 0,13.45261 -5.40879,25.668649 -14.18568,34.541479 6.44789,7.15846 15.803,11.64117 26.20823,11.64117 19.48097,0 35.2423,-15.76086 35.2423,-35.242299 0,-19.48145 -15.76085,-35.17845 -35.2423,-35.17845 z m -149.1093,4.64379 c -17.94523,0 -32.50606,14.43361 -32.50606,32.37835 0,17.944749 14.56083,32.506069 32.50606,32.506069 6.83023,0 13.15743,-2.12801 18.38423,-5.7252 -2.15978,-3.35613 -3.43515,-7.36838 -3.43515,-11.64117 0,-2.21773 0.32726,-4.3483 0.95417,-6.36137 -9.78502,-7.071449 -16.15724,-18.578989 -16.15724,-31.551399 0,-3.29627 0.43438,-6.4835 1.20864,-9.54205 -0.32136,-0.01 -0.63043,-0.0637 -0.95417,-0.0637 z m 190.77076,27.86211 c -0.95736,0 -1.8836,0.10904 -2.79897,0.25446 0.0511,0.80918 0.0638,1.59543 0.0638,2.41728 0,10.347279 -4.08266,19.737989 -10.687,26.717489 3.24917,3.77837 8.02163,6.17043 13.42244,6.17043 9.83754,0 17.81113,-7.91052 17.81113,-17.74726 0,-9.83756 -7.97422,-17.811129 -17.81113,-17.811129 z m -154.38863,1.90836 c -9.83706,0 -17.74886,7.910999 -17.74886,17.747259 0,9.83707 7.911,17.81113 17.74886,17.81113 7.54016,0 13.94032,-4.70494 16.5388,-11.32316 -6.34189,-6.45907 -10.89964,-14.69925 -12.91351,-23.855129 -1.17847,-0.24371 -2.37465,-0.38169 -3.62592,-0.38169 z m 195.09704,14.949079 v 35.17845 h -18.63806 c -12.18411,0 -22.07354,9.95312 -22.07354,22.13739 0,12.18235 9.88975,22.07353 22.07354,22.07353 h 7.25185 c 3.57435,0 7.1436,-1.73593 9.98728,-4.38933 2.84368,-2.65338 5.01416,-6.3288 5.08903,-10.43252 0.12772,-7.04368 0,-27.54442 0,-27.54442 v -37.0223 h -3.68962 z m -170.41656,15.90326 v 48.6633 c 0,8.17872 6.70667,14.82185 14.88555,14.82185 v -3.68961 c -6.18864,0 -11.19594,-4.9436 -11.19594,-11.13224 v -46.37405 c -1.28446,-0.69045 -2.47666,-1.49183 -3.68961,-2.29005 z m -36.89619,4.51655 c -6.53489,6.23542 -10.62345,15.0147 -10.62345,24.74593 0,18.88071 15.34435,34.22379 34.22379,34.22379 v -3.68962 c -16.8884,0 -30.5345,-13.64434 -30.5345,-30.53449 0,-9.08436 3.96532,-17.24919 10.24176,-22.83662 -1.17304,-0.5404 -2.25972,-1.1734 -3.30792,-1.90835 z m -43.44784,14.63108 c -12.1841,0 -22.07353,9.88959 -22.07353,22.07354 v 20.41965 h 3.68962 v -20.41965 c 0,-10.19339 8.19101,-18.44809 18.38423,-18.44809 10.19531,0 18.44809,8.25438 18.44809,18.44809 v 20.41965 h 3.68962 v -20.41965 c 0,-12.18411 -9.95168,-22.07354 -22.13739,-22.07354 z m 123.85413,0.12724 c -12.18474,0 -22.07354,9.95265 -22.07354,22.13739 0,12.18474 9.88896,22.13739 22.07354,22.13739 12.18474,0 22.13739,-9.95265 22.13739,-22.13739 0,-12.18474 -9.95265,-22.13739 -22.13739,-22.13739 z m -246.309804,0.0635 c -12.183787,0 -22.1373918,9.89007 -22.1373918,22.07353 0,12.18378 9.9536048,22.07354 22.1373918,22.07354 12.183787,0 22.073535,-9.89008 22.073535,-22.07354 0,-12.18378 -9.890067,-22.07353 -22.073535,-22.07353 z m 33.143029,1.65387 v 27.67214 c 0,8.17904 6.64457,14.82186 14.821852,14.82186 5.57338,0 10.490956,-3.08156 13.04074,-7.63355 2.531424,4.55199 7.404776,7.63355 12.97704,7.63355 8.178883,0 14.885393,-6.64282 14.885393,-14.82186 v -27.67214 h -3.68962 v 27.67214 c 0,6.18832 -5.00729,11.13223 -11.195933,11.13223 -6.188632,0 -11.132232,-4.94391 -11.132232,-11.13223 v -27.67214 h -3.689616 v 27.67214 c 0,6.18864 -5.005061,11.13223 -11.195932,11.13223 -6.18656,0 -11.132233,-4.94391 -11.132233,-11.13223 v -27.67211 h -3.689619 z m 244.968825,0 v 20.41966 c 0,12.18235 9.88974,22.07354 22.07353,22.07354 12.18411,0 22.13739,-9.89119 22.13739,-22.07354 v -20.41965 h -3.68961 v 20.41965 c 0,10.19099 -8.25455,18.38424 -18.4481,18.38424 -10.19322,0 -18.38424,-8.19309 -18.38424,-18.38424 v -20.41965 h -3.68961 z m -31.80684,1.97205 c 10.19402,0 18.44809,8.25375 18.44809,18.44809 0,10.19402 -8.25375,18.44809 -18.44809,18.44809 -10.19403,0 -18.38423,-8.25375 -18.38423,-18.44809 0,-10.19402 8.1902,-18.44809 18.38423,-18.44809 z m 108.27,0 h 18.63806 c 0.016,2.43787 0.11654,19.23033 0,25.63671 -0.0526,2.85087 -1.61572,5.71132 -3.88038,7.82448 -2.26468,2.113 -5.19536,3.37145 -7.50632,3.37145 h -7.25184 c -10.19323,0 -18.38424,-8.19308 -18.38424,-18.38423 0,-10.19338 8.19101,-18.44809 18.38424,-18.44809 z m -354.578207,0.0637 c 10.193066,0 18.384236,8.19117 18.384236,18.38423 0,10.19307 -8.19117,18.38424 -18.384236,18.38424 -10.193066,0 -18.4480925,-8.19117 -18.4480925,-18.38424 0,-10.19306 8.2547075,-18.38423 18.4480925,-18.38423 z"
     id="path4159"
     inkscape:export-filename="/home/jan/ownCloud Contributor Conference logo.png"
     inkscape:export-xdpi="179.59"
     inkscape:export-ydpi="179.59" /><g
     style="font-size:40px;font-style:normal;font-weight:normal;line-height:100%;letter-spacing:0px;word-spacing:0px;fill:#000000;fill-opacity:1;stroke:none;font-family:Sans"
     id="text4161"
     transform="matrix(1.5964081,0,0,1.5964081,1,1.0019207)"><path
       style="font-size:43px;font-variant:normal;font-stretch:normal;line-height:100%;letter-spacing:-1.33000028px;fill:#ffffff;fill-opacity:1;font-family:Source Sans Pro;-inkscape-font-specification:Source Sans Pro"
       d="m 12.8125,132.34375 c -1.806013,3e-5 -3.4832614,0.34328 -5.03125,1.03125 -1.5193416,0.65937 -2.850757,1.6137 -3.96875,2.875 -1.1180047,1.26136 -1.9630872,2.78778 -2.59375,4.59375 -0.63066924,1.80602 -0.96875224,3.8291 -0.96875,6.09375 -2.24e-6,2.29335 0.30424743,4.3841 0.90625,6.21875 0.6306629,1.80601 1.504412,3.33243 2.59375,4.59375 1.1179931,1.23267 2.4155751,2.18442 3.90625,2.84375 1.5193221,0.65934 3.160154,0.96875 4.9375,0.96875 1.805984,0 3.407815,-0.34583 4.8125,-1.0625 1.404646,-0.71666 2.663228,-1.70999 3.78125,-3 l -2,-2.21875 c -0.917354,1.00334 -1.905519,1.79909 -2.9375,2.34375 -1.003351,0.54467 -2.186516,0.81251 -3.5625,0.8125 -1.347347,1e-5 -2.566929,-0.26783 -3.65625,-0.8125 -1.0606767,-0.54466 -1.9734258,-1.34041 -2.71875,-2.34375 -0.7453409,-1.00332 -1.320007,-2.18907 -1.75,-3.59375 -0.4013395,-1.43332 -0.593756,-3.03515 -0.59375,-4.8125 -6e-6,-1.74865 0.1949938,-3.34531 0.625,-4.75 0.4299929,-1.40464 1.0384923,-2.58781 1.8125,-3.5625 0.7739908,-1.0033 1.6919065,-1.76522 2.78125,-2.28125 1.089321,-0.54464 2.308903,-0.81247 3.65625,-0.8125 1.203984,3e-5 2.267566,0.23145 3.15625,0.71875 0.917314,0.4587 1.754647,1.10361 2.5,1.90625 l 2,-2.28125 c -0.831355,-0.9173 -1.866271,-1.71822 -3.15625,-2.40625 -1.290018,-0.71663 -2.811267,-1.06247 -4.53125,-1.0625 z m 21.40625,0 c -1.777346,3e-5 -3.384344,0.30945 -4.875,0.96875 -1.462008,0.65937 -2.75184,1.6137 -3.8125,2.875 -1.060671,1.2327 -1.866754,2.75653 -2.46875,4.5625 -0.573336,1.77736 -0.875002,3.79785 -0.875,6.0625 -2e-6,2.26468 0.301664,4.3216 0.875,6.15625 0.601996,1.80601 1.408079,3.36626 2.46875,4.65625 1.06066,1.26134 2.350492,2.21826 3.8125,2.90625 1.490656,0.688 3.097654,1.03125 4.875,1.03125 1.777317,0 3.412982,-0.34325 4.875,-1.03125 1.490646,-0.68799 2.751811,-1.64491 3.8125,-2.90625 1.089309,-1.28999 1.926642,-2.85024 2.5,-4.65625 0.601974,-1.83465 0.906224,-3.89157 0.90625,-6.15625 -2.6e-5,-2.23598 -0.304276,-4.22264 -0.90625,-6 -0.573358,-1.80597 -1.410691,-3.3298 -2.5,-4.5625 -1.060689,-1.2613 -2.321854,-2.21563 -3.8125,-2.875 -1.462018,-0.68797 -3.097683,-1.03122 -4.875,-1.03125 z m 180.03125,0 c -1.77734,3e-5 -3.41559,0.30945 -4.90625,0.96875 -1.46201,0.65937 -2.72059,1.6137 -3.78125,2.875 -1.06067,1.2327 -1.898,2.75653 -2.5,4.5625 -0.57333,1.77736 -0.875,3.79785 -0.875,6.0625 0,2.26468 0.30167,4.3216 0.875,6.15625 0.602,1.80601 1.43933,3.36626 2.5,4.65625 1.06066,1.26134 2.31924,2.21826 3.78125,2.90625 1.49066,0.688 3.12891,1.03125 4.90625,1.03125 1.77732,0 3.38173,-0.34325 4.84375,-1.03125 1.49065,-0.68799 2.78306,-1.64491 3.84375,-2.90625 1.08931,-1.28999 1.89539,-2.85024 2.46875,-4.65625 0.60198,-1.83465 0.90623,-3.89157 0.90625,-6.15625 -2e-5,-2.23598 -0.30427,-4.22264 -0.90625,-6 -0.57336,-1.80597 -1.37944,-3.3298 -2.46875,-4.5625 -1.06069,-1.2613 -2.3531,-2.21563 -3.84375,-2.875 -1.46202,-0.68797 -3.06643,-1.03122 -4.84375,-1.03125 z m -163.1875,0.5 0,28.21875 3.375,0 0,-14.75 c -7e-6,-1.49065 -0.04159,-2.97548 -0.15625,-4.4375 -0.08601,-1.49064 -0.19784,-2.94164 -0.3125,-4.375 l 0.1875,0 3.03125,5.78125 10.25,17.78125 3.6875,0 0,-28.21875 -3.40625,0 0,14.59375 c -2e-5,1.49068 0.07023,2.98327 0.15625,4.53125 0.114646,1.51935 0.19523,3.00418 0.28125,4.4375 l -0.15625,0 -3.0625,-5.84375 -10.1875,-17.71875 -3.6875,0 z m 23.78125,0 0,3 8.53125,0 0,25.21875 3.59375,0 0,-25.21875 8.53125,0 0,-3 -20.65625,0 z m 24.34375,0 0,28.21875 3.59375,0 0,-11.90625 5.09375,0 6.8125,11.90625 4.03125,0 -7.125,-12.3125 c 1.92065,-0.48732 3.44706,-1.36881 4.59375,-2.6875 1.14664,-1.31865 1.71872,-3.10514 1.71875,-5.3125 -3e-5,-1.46197 -0.23144,-2.68414 -0.71875,-3.6875 -0.48736,-1.0033 -1.17386,-1.83805 -2.0625,-2.46875 -0.86002,-0.63063 -1.9236,-1.05447 -3.15625,-1.3125 -1.20402,-0.28663 -2.50418,-0.43747 -3.9375,-0.4375 l -8.84375,0 z m 23.625,0 0,28.21875 3.5625,0 0,-28.21875 -3.5625,0 z m 10,0 0,28.21875 9,0 c 1.57665,0 3.02507,-0.18724 4.34375,-0.53125 1.31865,-0.34399 2.46023,-0.84324 3.40625,-1.53125 0.94598,-0.68799 1.67148,-1.56174 2.1875,-2.59375 0.51598,-1.03199 0.78123,-2.21774 0.78125,-3.59375 -2e-5,-1.94932 -0.60336,-3.50698 -1.75,-4.625 -1.14669,-1.11798 -2.74852,-1.80965 -4.8125,-2.125 l 0,-0.1875 c 1.66265,-0.42998 2.91606,-1.19448 3.71875,-2.3125 0.80265,-1.14664 1.18748,-2.43906 1.1875,-3.84375 -2e-5,-1.23264 -0.23144,-2.26497 -0.71875,-3.125 -0.45869,-0.88864 -1.10877,-1.61155 -1.96875,-2.15625 -0.83135,-0.54463 -1.85852,-0.96072 -3.0625,-1.21875 -1.17535,-0.25797 -2.47293,-0.37497 -3.90625,-0.375 l -8.40625,0 z m 23.84375,0 0,16.5625 c -1e-5,2.26468 0.23399,4.17076 0.75,5.71875 0.51599,1.54801 1.23632,2.80659 2.125,3.78125 0.91732,0.94601 1.98607,1.63251 3.21875,2.0625 1.26132,0.40134 2.5979,0.59375 4.03125,0.59375 1.43331,0 2.76731,-0.19241 4,-0.59375 1.23264,-0.42999 2.29881,-1.11649 3.1875,-2.0625 0.91731,-0.97466 1.64022,-2.23324 2.15625,-3.78125 0.51597,-1.54799 0.78122,-3.45407 0.78125,-5.71875 l 0,-16.5625 -3.4375,0 0,16.65625 c -3e-5,1.69135 -0.18727,3.10335 -0.53125,4.25 -0.34402,1.14668 -0.80427,2.06201 -1.40625,2.75 -0.60202,0.68801 -1.32236,1.18468 -2.125,1.5 -0.80269,0.28667 -1.67902,0.43751 -2.625,0.4375 -0.91735,1e-5 -1.75985,-0.15083 -2.5625,-0.4375 -0.80268,-0.31532 -1.52301,-0.81199 -2.125,-1.5 -0.57335,-0.68799 -1.03101,-1.60332 -1.375,-2.75 -0.34401,-1.14665 -0.50001,-2.55865 -0.5,-4.25 l 0,-16.65625 -3.5625,0 z m 23.84375,0 0,3 8.5,0 0,25.21875 3.625,0 0,-25.21875 8.5,0 0,-3 -20.625,0 z m 50.5625,0 0,28.21875 3.5625,0 0,-11.90625 5.125,0 6.78125,11.90625 4.03125,0 -7.125,-12.3125 c 1.92065,-0.48732 3.44706,-1.36881 4.59375,-2.6875 1.14664,-1.31865 1.71872,-3.10514 1.71875,-5.3125 -3e-5,-1.46197 -0.23144,-2.68414 -0.71875,-3.6875 -0.48736,-1.0033 -1.17386,-1.83805 -2.0625,-2.46875 -0.86002,-0.63063 -1.9236,-1.05447 -3.15625,-1.3125 -1.20402,-0.28663 -2.50418,-0.43747 -3.9375,-0.4375 l -8.8125,0 z m -196.84375,2.625 c 1.261318,3e-5 2.4029,0.26786 3.40625,0.8125 1.031981,0.51603 1.908314,1.27536 2.625,2.25 0.745312,0.97469 1.317395,2.15786 1.71875,3.5625 0.401311,1.40469 0.593727,2.9701 0.59375,4.71875 -2.3e-5,1.77735 -0.192439,3.37918 -0.59375,4.8125 -0.401355,1.40468 -0.973438,2.62426 -1.71875,3.65625 -0.716686,1.00334 -1.593019,1.79909 -2.625,2.34375 -1.00335,0.54467 -2.144932,0.81251 -3.40625,0.8125 -1.261346,1e-5 -2.405512,-0.26783 -3.4375,-0.8125 -1.003343,-0.54466 -1.879676,-1.34041 -2.625,-2.34375 -0.716674,-1.03199 -1.254924,-2.25157 -1.65625,-3.65625 -0.40134,-1.43332 -0.625006,-3.03515 -0.625,-4.8125 -6e-6,-1.74865 0.22366,-3.31406 0.625,-4.71875 0.401326,-1.40464 0.939576,-2.58781 1.65625,-3.5625 0.745324,-0.97464 1.621657,-1.73397 2.625,-2.25 1.031988,-0.54464 2.176154,-0.81247 3.4375,-0.8125 z m 180.03125,0 c 1.26132,3e-5 2.37165,0.26786 3.375,0.8125 1.03198,0.51603 1.90832,1.27536 2.625,2.25 0.74531,0.97469 1.3174,2.15786 1.71875,3.5625 0.40131,1.40469 0.62498,2.9701 0.625,4.71875 -2e-5,1.77735 -0.22369,3.37918 -0.625,4.8125 -0.40135,1.40468 -0.97344,2.62426 -1.71875,3.65625 -0.71668,1.00334 -1.59302,1.79909 -2.625,2.34375 -1.00335,0.54467 -2.11368,0.81251 -3.375,0.8125 -1.26134,1e-5 -2.43676,-0.26783 -3.46875,-0.8125 -1.00334,-0.54466 -1.84842,-1.34041 -2.59375,-2.34375 -0.71667,-1.03199 -1.28617,-2.25157 -1.6875,-3.65625 -0.40134,-1.43332 -0.59375,-3.03515 -0.59375,-4.8125 0,-1.74865 0.19241,-3.31406 0.59375,-4.71875 0.40133,-1.40464 0.97083,-2.58781 1.6875,-3.5625 0.74533,-0.97464 1.59041,-1.73397 2.59375,-2.25 1.03199,-0.54464 2.20741,-0.81247 3.46875,-0.8125 z m -77.84375,0.21875 4.3125,0 c 2.20732,3e-5 3.8794,0.34328 4.96875,1.03125 1.11798,0.65936 1.65623,1.76453 1.65625,3.3125 -2e-5,1.57669 -0.5331,2.76244 -1.59375,3.59375 -1.03202,0.83135 -2.75085,1.25002 -5.1875,1.25 l -4.15625,0 0,-9.1875 z m -33.625,0.0312 4.71875,0 c 2.20732,3e-5 3.88715,0.3797 5.0625,1.125 1.17531,0.74536 1.78123,2.04294 1.78125,3.90625 -2e-5,1.83469 -0.60594,3.20769 -1.78125,4.125 -1.17535,0.88869 -2.85518,1.34377 -5.0625,1.34375 l -4.71875,0 0,-10.5 z m 131.84375,0 4.71875,0 c 2.20732,3e-5 3.9184,0.3797 5.09375,1.125 1.17531,0.74536 1.74998,2.04294 1.75,3.90625 -2e-5,1.83469 -0.57469,3.20769 -1.75,4.125 -1.17535,0.88869 -2.88643,1.34377 -5.09375,1.34375 l -4.71875,0 0,-10.5 z m -98.21875,11.84375 4.875,0 c 2.49399,2e-5 4.40007,0.41868 5.71875,1.25 1.31865,0.80268 1.99998,2.06385 2,3.8125 -2e-5,1.92068 -0.68394,3.33268 -2.03125,4.25 -1.34735,0.88867 -3.25085,1.34376 -5.6875,1.34375 l -4.875,0 0,-10.65625 z M 13.375,175.5 c -1.806014,3e-5 -3.5222619,0.3407 -5.15625,1 -1.605342,0.65937 -3.0173405,1.6137 -4.25,2.875 -1.2040048,1.26136 -2.1895871,2.82161 -2.90625,4.65625 -0.71666903,1.80602 -1.062501978,3.86552 -1.0625,6.1875 -1.978e-6,2.35068 0.34324765,4.41276 1.03125,6.21875 0.6879963,1.77734 1.6397453,3.26476 2.84375,4.46875 1.2039929,1.20401 2.6134082,2.11934 4.21875,2.75 1.6053216,0.602 3.287737,0.90625 5.09375,0.90625 1.74865,0 3.384315,-0.34325 4.875,-1.03125 1.519312,-0.68799 2.855894,-1.71774 4.03125,-3.09375 L 18.625,196.625 c -0.68802,0.74535 -1.452519,1.32259 -2.3125,1.78125 -0.860017,0.45868 -1.8846,0.68751 -3.03125,0.6875 -2.064013,1e-5 -3.7048449,-0.76707 -4.9375,-2.34375 C 7.1110742,195.14468 6.4999915,192.89535 6.5,190 c -8.5e-6,-1.40465 0.1559913,-2.66323 0.5,-3.78125 0.3726573,-1.11798 0.8693234,-2.06973 1.5,-2.84375 0.6306555,-0.77397 1.3874048,-1.37989 2.21875,-1.78125 0.859986,-0.42997 1.775319,-0.62497 2.75,-0.625 0.97465,3e-5 1.814566,0.18986 2.53125,0.5625 0.745315,0.37269 1.470814,0.87194 2.1875,1.53125 l 3.5,-3.90625 c -0.946023,-0.97464 -2.160438,-1.81455 -3.59375,-2.53125 -1.404685,-0.7453 -2.9701,-1.12497 -4.71875,-1.125 z m 22.78125,0 c -1.892013,3e-5 -3.610845,0.3407 -5.1875,1 -1.548008,0.6307 -2.882007,1.54861 -4,2.78125 -1.118005,1.20403 -1.994337,2.72528 -2.625,4.53125 -0.602003,1.77736 -0.906252,3.80044 -0.90625,6.09375 -2e-6,2.29335 0.304247,4.35026 0.90625,6.15625 0.630663,1.80601 1.506995,3.33243 2.625,4.59375 1.117993,1.26134 2.451992,2.24951 4,2.9375 1.576655,0.65934 3.295487,0.96875 5.1875,0.96875 1.891983,0 3.608231,-0.30941 5.15625,-0.96875 1.576645,-0.68799 2.944477,-1.67616 4.0625,-2.9375 1.117975,-1.26132 1.960474,-2.78774 2.5625,-4.59375 0.630639,-1.80599 0.937472,-3.8629 0.9375,-6.15625 -2.8e-5,-2.26465 -0.306861,-4.28514 -0.9375,-6.0625 -0.602026,-1.80597 -1.444525,-3.3298 -2.5625,-4.5625 -1.118023,-1.23264 -2.485855,-2.15055 -4.0625,-2.78125 -1.548019,-0.6593 -3.264267,-0.99997 -5.15625,-1 z m 183.3125,0 c -1.80602,3e-5 -3.52227,0.3407 -5.15625,1 -1.60535,0.65937 -3.01734,1.6137 -4.25,2.875 -1.20401,1.26136 -2.15834,2.82161 -2.875,4.65625 -0.71667,1.80602 -1.09376,3.86552 -1.09375,6.1875 -1e-5,2.35068 0.34324,4.41276 1.03125,6.21875 0.68799,1.77734 1.63974,3.26476 2.84375,4.46875 1.20399,1.20401 2.6134,2.11934 4.21875,2.75 1.60532,0.602 3.31898,0.90625 5.125,0.90625 1.74865,0 3.35306,-0.34325 4.84375,-1.03125 1.51931,-0.68799 2.85589,-1.71774 4.03125,-3.09375 l -3.46875,-3.8125 c -0.68802,0.74535 -1.45252,1.32259 -2.3125,1.78125 -0.86002,0.45868 -1.8846,0.68751 -3.03125,0.6875 -2.06402,1e-5 -3.70485,-0.76707 -4.9375,-2.34375 -1.23268,-1.60532 -1.84376,-3.85465 -1.84375,-6.75 -1e-5,-1.40465 0.15599,-2.66323 0.5,-3.78125 0.37265,-1.11798 0.90057,-2.06973 1.53125,-2.84375 0.63065,-0.77397 1.35615,-1.37989 2.1875,-1.78125 0.85998,-0.42997 1.77532,-0.62497 2.75,-0.625 0.97465,3e-5 1.81456,0.18986 2.53125,0.5625 0.74531,0.37269 1.47081,0.87194 2.1875,1.53125 l 3.5,-3.90625 c -0.94603,-0.97464 -2.16044,-1.81455 -3.59375,-2.53125 -1.40469,-0.7453 -2.9701,-1.12497 -4.71875,-1.125 z m -165.3125,0.53125 0,28.03125 6.03125,0 0,-9.9375 c -1e-5,-1.66265 -0.111843,-3.3789 -0.3125,-5.15625 -0.172009,-1.77731 -0.325426,-3.45198 -0.46875,-5 l 0.15625,0 2.78125,6.125 7.28125,13.96875 6.5,0 0,-28.03125 -6,0 0,9.875 c -1.9e-5,1.66269 0.07798,3.41535 0.25,5.25 0.200647,1.83468 0.356647,3.50935 0.5,5 l -0.15625,0 -2.75,-6.21875 -7.3125,-13.90625 -6.5,0 z m 28.5625,0 0,28.03125 6.3125,0 0,-10.875 9.71875,0 0,-5.34375 -9.71875,0 0,-6.5 11.34375,0 0,-5.3125 -17.65625,0 z m 22.5,0 0,28.03125 17.96875,0 0,-5.34375 -11.65625,0 0,-6.4375 9.5625,0 0,-5.3125 -9.5625,0 0,-5.625 11.25,0 0,-5.3125 -17.5625,0 z m 23.59375,0 0,28.03125 6.34375,0 0,-10.125 3.46875,0 5.375,10.125 7.09375,0 -6.375,-11.21875 c 1.51931,-0.65932 2.73631,-1.65007 3.625,-2.96875 0.91731,-1.34731 1.37498,-3.06098 1.375,-5.125 -2e-5,-1.66264 -0.30169,-3.06947 -0.875,-4.1875 -0.57335,-1.11797 -1.33785,-1.99689 -2.3125,-2.65625 -0.97469,-0.68797 -2.11885,-1.18205 -3.4375,-1.46875 -1.29002,-0.28663 -2.6656,-0.40622 -4.15625,-0.40625 l -10.125,0 z m 26.46875,0 0,28.03125 17.96875,0 0,-5.34375 -11.65625,0 0,-6.4375 9.5625,0 0,-5.3125 -9.5625,0 0,-5.625 11.21875,0 0,-5.3125 -17.53125,0 z m 23.59375,0 0,28.03125 6.03125,0 0,-9.9375 c -1e-5,-1.66265 -0.11184,-3.3789 -0.3125,-5.15625 -0.17201,-1.77731 -0.32543,-3.45198 -0.46875,-5 l 0.15625,0 2.75,6.125 7.3125,13.96875 6.5,0 0,-28.03125 -6,0 0,9.875 c -2e-5,1.66269 0.078,3.41535 0.25,5.25 0.20065,1.83468 0.35665,3.50935 0.5,5 l -0.15625,0 -2.75,-6.21875 -7.3125,-13.90625 -6.5,0 z m 53.59375,0 0,28.03125 17.96875,0 0,-5.34375 -11.65625,0 0,-6.4375 9.53125,0 0,-5.3125 -9.53125,0 0,-5.625 11.21875,0 0,-5.3125 -17.53125,0 z m -196.3125,4.9375 c 1.92065,3e-5 3.444481,0.79836 4.5625,2.375 1.117979,1.57669 1.687479,3.75319 1.6875,6.5625 -2.1e-5,2.83802 -0.569521,5.08735 -1.6875,6.75 -1.118019,1.63401 -2.64185,2.43751 -4.5625,2.4375 -1.92068,1e-5 -3.444512,-0.80349 -4.5625,-2.4375 -1.118009,-1.66265 -1.656259,-3.91198 -1.65625,-6.75 -9e-6,-2.80931 0.538241,-4.98581 1.65625,-6.5625 1.117988,-1.57664 2.64182,-2.37497 4.5625,-2.375 z m 99,0.0937 3.25,0 c 1.66265,3e-5 2.92124,0.26786 3.78125,0.8125 0.88865,0.54469 1.34373,1.49903 1.34375,2.875 -2e-5,1.37602 -0.4551,2.40836 -1.34375,3.125 -0.86001,0.68802 -2.1186,1.03127 -3.78125,1.03125 l -3.25,0 0,-7.84375 z"
       transform="translate(0,-0.00171673)"
       id="path3115"
       inkscape:connector-curvature="0" /></g></svg>