<?xml version="1.0" encoding="UTF-8" standalone="no"?>
<svg
   xmlns:dc="http://purl.org/dc/elements/1.1/"
   xmlns:cc="http://creativecommons.org/ns#"
   xmlns:rdf="http://www.w3.org/1999/02/22-rdf-syntax-ns#"
   xmlns:svg="http://www.w3.org/2000/svg"
   xmlns="http://www.w3.org/2000/svg"
   xmlns:sodipodi="http://sodipodi.sourceforge.net/DTD/sodipodi-0.dtd"
   xmlns:inkscape="http://www.inkscape.org/namespaces/inkscape"
   version="1"
   width="100"
   height="31.3"
   viewBox="0 0 100 31.2998"
   id="svg8"
   sodipodi:docname="gls-logo-mono.svg"
   inkscape:version="0.92.3 (2405546, 2018-03-11)">
  <metadata
     id="metadata14">
    <rdf:RDF>
      <cc:Work
         rdf:about="">
        <dc:format>image/svg+xml</dc:format>
        <dc:type
           rdf:resource="http://purl.org/dc/dcmitype/StillImage" />
      </cc:Work>
    </rdf:RDF>
  </metadata>
  <defs
     id="defs12" />
  <sodipodi:namedview
     pagecolor="#ffffff"
     bordercolor="#666666"
     borderopacity="1"
     objecttolerance="10"
     gridtolerance="10"
     guidetolerance="10"
     inkscape:pageopacity="0"
     inkscape:pageshadow="2"
     inkscape:window-width="1920"
     inkscape:window-height="1046"
     id="namedview10"
     showgrid="false"
     inkscape:zoom="5.26"
     inkscape:cx="50"
     inkscape:cy="15.65"
     inkscape:window-x="0"
     inkscape:window-y="34"
     inkscape:window-maximized="1"
     inkscape:current-layer="svg8" />
  <path
     fill="none"
     d="M0 0h100v31.3H0z"
     id="path2" />
  <path
     d="M6.048 5.941h4.543v6.048c-.896.547-2.218.912-3.98.912C2.947 12.901 0 10.637 0 6.595 0 2.947 2.583.243 6.625.243c1.596 0 3.191.35 3.966.82L10.44 3.1c-1.002-.593-2.355-.851-3.768-.851-2.66 0-4.346 1.564-4.346 4.285 0 2.78 1.64 4.376 4.376 4.376.548 0 1.11-.046 1.687-.137V7.871h-2.34v-1.93zm6.534 6.702h7.083v-1.99h-4.819V.485h-2.264v12.157zm14.376-3.267c0 .88-.608 1.564-2.127 1.564a8.703 8.703 0 0 1-3.86-.88l-.107 2.096c1.125.517 2.523.745 3.906.745 2.917 0 4.452-1.763 4.452-3.86 0-4.103-6.245-2.812-6.245-5.288 0-.987.85-1.565 2.05-1.565 1.156 0 2.538.304 3.45.851l.426-1.93c-.85-.502-2.325-.866-3.8-.866-2.46 0-4.375 1.352-4.375 3.737 0 4.226 6.23 2.995 6.23 5.396zm12.31-2.052h-2.462v3.389h2.462c1.367 0 1.96-.79 1.96-1.702 0-.927-.608-1.687-1.96-1.687zm-.456-4.908h-2.006v3.252h2.006c1.352 0 1.96-.654 1.96-1.535 0-.927-.638-1.717-1.96-1.717zm2.705 3.92c1.428.486 2.05 1.49 2.05 2.857 0 1.99-1.337 3.45-4.36 3.45H34.54V.486h4.194c3.025 0 4.377 1.307 4.377 3.283 0 1.17-.502 2.066-1.595 2.567zm7.265 2.655c-1.566 0-2.006.474-2.006 1.143 0 .653.486 1.095 1.2 1.095 1.08 0 2.097-.825 2.431-2.238h-1.625zm1.656 3.652v-1.49c-.684 1.094-1.778 1.717-3.009 1.717-1.808 0-2.796-.99-2.796-2.463 0-1.854 1.444-2.753 3.845-2.753h1.96v-.482c0-1.094-.471-1.353-1.778-1.353-.988 0-2.28.26-3.328.578l.197-1.93a12.02 12.02 0 0 1 3.465-.531c2.537 0 3.602.637 3.602 2.948v5.759h-2.158zm3.958 0h2.189V6.975c.79-.64 1.626-1.094 2.462-1.094.866 0 1.338.318 1.338 1.306v5.456h2.187V6.792c0-2.066-.866-2.856-2.72-2.856-1.322 0-2.37.683-3.267 1.626V3.996l-2.189.197v8.45zm9.885 0h2.189v-2.37l1.352-1.323 2.188 3.693h2.431l-3.175-5.137 3.343-3.313h-2.66l-3.48 3.662V0h-2.188v12.643zM59.17 27.734l.875-.078v.626c.36-.377.78-.65 1.309-.65.742 0 1.087.315 1.087 1.142v2.342h-.875v-2.183c0-.395-.188-.523-.535-.523-.335 0-.669.183-.986.438v2.268h-.875v-3.382zm-4.233 3.382h.876v-2.268c.316-.255.65-.438.986-.438.346 0 .534.128.534.523v2.183h.876v-2.342c0-.827-.347-1.142-1.088-1.142-.53 0-.95.273-1.308.65v-.626l-.876.078v3.382zM53.07 26.21h.875v.918h-.875v-.918zm-.492 1.525h1.367v3.382h-.875v-2.645h-.584l.092-.737zm-1.457 2.075c0 .352-.243.627-.852.627a3.481 3.481 0 0 1-1.544-.353l-.043.839c.45.207 1.01.298 1.563.298 1.167 0 1.782-.705 1.782-1.544 0-1.643-2.5-1.126-2.5-2.117 0-.396.34-.627.822-.627.462 0 1.014.122 1.38.34l.17-.772c-.34-.2-.93-.346-1.52-.346-.985 0-1.752.541-1.752 1.495 0 1.692 2.494 1.199 2.494 2.16zm-7.118-1.344h.53v1.709c0 .797.468 1.053 1.064 1.053.237 0 .48-.038.717-.098l.049-.773a1.809 1.809 0 0 1-.468.074c-.262 0-.487-.11-.487-.482v-1.483h.943l.073-.73h-1.016v-1.022h-.876v1.021h-.529v.73zm-3.931 2.651h.876v-2.268c.316-.255.65-.438.985-.438.347 0 .535.128.535.523v2.183h.876v-2.353c0-.822-.335-1.131-1.076-1.131-.53 0-.955.28-1.32.65v-2.225h-.876v5.06zm-1.622-2.73c.268 0 .548.06.864.145l.042-.771a4.632 4.632 0 0 0-1.07-.128c-1.332 0-1.8.893-1.8 1.837 0 1.21.718 1.75 1.727 1.75.39 0 .846-.073 1.113-.182v-.718a3.052 3.052 0 0 1-.93.147c-.523 0-1.04-.23-1.04-1.052 0-.706.347-1.028 1.094-1.028zm-7.654 2.73h.876v-2.36c0-.802-.383-1.124-1.034-1.124-.554 0-.985.255-1.357.675-.121-.475-.462-.675-1.028-.675-.456 0-.912.273-1.246.632v-.608l-.876.078v3.382h.876v-2.28c.31-.262.626-.426.906-.426.353 0 .547.176.547.523v2.183h.876v-2.299c.262-.207.578-.407.894-.407.377 0 .566.176.566.523v2.183zm-7.915-.991c0 .231-.225.383-.76.383-.39 0-.76-.078-1.277-.206l.049.754c.31.085.76.164 1.277.164 1.021 0 1.526-.487 1.526-1.107 0-.827-.766-.955-1.374-1.034-.402-.055-.718-.115-.718-.371 0-.237.243-.347.718-.347.395 0 .797.092 1.222.25l.006-.785a4.116 4.116 0 0 0-1.29-.194c-.826 0-1.453.335-1.453 1.057 0 .846.736.992 1.326 1.07.414.056.748.111.748.366zm-4.744.426c.431 0 .84-.346.973-.911h-.651c-.626 0-.803.19-.803.457 0 .261.195.454.48.454zm.985-.03c-.274.437-.712.687-1.204.687-.724 0-1.12-.412-1.12-1.002 0-.742.578-1.101 1.54-1.101h.784v-.178c0-.438-.188-.541-.712-.541-.395 0-.912.103-1.331.231l.079-.772a4.79 4.79 0 0 1 1.386-.213c1.016 0 1.442.255 1.442 1.18v2.304h-.864v-.595zm14.702.03c.432 0 .84-.346.973-.911h-.65c-.627 0-.803.19-.803.457 0 .261.195.454.48.454zm.986-.03c-.274.437-.712.687-1.205.687-.724 0-1.119-.412-1.119-1.002 0-.742.578-1.101 1.539-1.101h.785v-.178c0-.438-.19-.541-.712-.541-.396 0-.912.103-1.332.231l.08-.772a4.788 4.788 0 0 1 1.385-.213c1.017 0 1.442.255 1.442 1.18v2.304h-.863v-.595zm-20.636-.013c.383 0 .712-.297.992-.724V28.43a2.62 2.62 0 0 0-.694-.092c-.76 0-1.004.475-1.004 1.18 0 .815.36.99.706.99zm.992.013c-.341.48-.737.699-1.235.699-.925 0-1.332-.694-1.332-1.636 0-1.01.432-1.946 1.94-1.946.176 0 .401.018.627.066v-1.647h.875v5.06h-.875v-.596z"
     id="path4"
     style="fill:#ffffff;fill-opacity:1" />
  <path
     fill="#01569A"
     d="M28.416 23.54c-.049-.031-.058-.123-.023-.246.086-.286.203-.558.348-.805l.034-.06c.701-1.278 2.915-3.849 9.871-5.046 8.532-1.469 19.833-.508 24.295-.122.746.063 1.472.119 2.163.165l.437.02 1.281.077c.558.027 1.083.043 1.565.054l.142.001c.425.004 1.55.042 2.215.006.42-.022.955-.07 1.519-.12l.561-.049c.084-.008.122.044.13.09l.002.018a.099.099 0 0 1-.08.1c-1.94.48-3.885.872-6.25 1.132-3.103.33-6.173.388-10.097.299l-.19-.025c-.491-.03-.54-.051-1.34-.215-.026-.004.026.008-.08-.015-.104-.025-.115-.163.02-.167h.188c3.144.012 3.976-.031 6.652-.153l1.19-.06.99-.087c.098-.008.14-.148.14-.191-.001-.048-.074-.17-.234-.175-.037.002-.607-.03-.96-.045-.368-.016-1.495.047-1.495.047-.61 0-4.557.178-8.592.178-.174 0-.974-.065-1.136-.101a3.033 3.033 0 0 0-.426-.048c-.086-.018-.078-.134.015-.138 0 0 1.541-.142 2.95-.163a66.81 66.81 0 0 0 1.61-.058c.233-.015.463-.06.463-.222 0-.203-1.363-.203-2.16-.203-1.8 0-5.542.344-5.993.344-.605 0-.974-.135-3.946-.135-2.856 0-5.806.323-8.461 1.27-2.678.953-4.305 2.398-4.88 2.975l-.056.057-.096.094c-.11.094-.26.189-.431.297-.265.168-.565.36-.862.628l-.433.397-.368.339c-.072.064-.148.088-.192.06m49.436-6.74c-.019-.044-.09-.049-.182-.013l-.627.226c-3.32 1.188-6.099 1.87-9.29 2.282-3.157.394-6.108.419-9.552.332l-.043-.001c-.159-.005-.177.136.016.197l.054.018c.754.224 1.827.42 2.49.458 3.967.111 6.622-.072 9.474-.657 1.913-.405 4.093-.977 7.068-2.43l.48-.238c.092-.047.133-.127.112-.174m-6.633 3.35c-2.825.663-5.408.887-9.217.8l-.154-.005c-.059 0-.108.03-.116.073-.011.065.072.17.34.271l.087.037.062.027c.773.298 1.837.609 2.47.631 3.647-.013 6.14-.41 8.888-1.42 1.466-.554 2.766-1.198 4.214-2.085 1.352-.84 2.59-1.722 4.02-2.866l.266-.214c.073-.058.102-.12.1-.168a.103.103 0 0 0-.017-.06c-.034-.047-.112-.065-.195-.01 0 0-.422.281-.424.281l-1.08.667c-1.754 1.094-3.31 1.92-4.895 2.6a26.643 26.643 0 0 1-4.35 1.44m-4.933 3.29c.942.502 1.922.823 2.442.8 3.292-.343 5.496-1.082 8.132-2.723 1.284-.815 2.506-1.773 4.084-3.204 1.529-1.386 3.186-3.042 5.364-5.267l.096-.098c.147-.148.392-.397.462-.476.088-.1.09-.18.056-.213-.036-.036-.128-.03-.237.07-.098.089-.5.43-.613.519a75.398 75.398 0 0 0-2.028 1.682c-2.072 1.836-3.701 3.136-5.28 4.215-1.486 1.005-2.779 1.724-4.19 2.33-2.745 1.139-5.202 1.61-8.766 1.677-.247.014-.279.07-.283.086-.01.044.041.193.761.602m4.147 2.708c.97.667 1.935 1.038 2.4.921 2.769-.942 4.643-2.17 7.162-4.695 1.24-1.259 2.416-2.622 4.154-4.696l.59-.706 2.408-2.867a122.699 122.699 0 0 1 4.51-5.029l.371-.406c.097-.105.106-.201.067-.242-.038-.041-.131-.037-.253.06l-.355.297-.054.048a54.59 54.59 0 0 0-3.387 3.148l-1.005 1.056c-2.294 2.407-3.809 4-5.197 5.36-1.66 1.62-2.841 2.638-4.08 3.52-2.615 1.824-4.77 2.675-7.956 3.134-.139.026-.217.076-.233.148-.023.103.059.36.858.949m4.473 3.495c1.011.841 1.955 1.222 2.347.949 1.081-.945 1.972-1.9 2.98-3.192.931-1.2 1.815-2.506 2.936-4.228l.625-.966a118.382 118.382 0 0 1 3.789-5.588 81.681 81.681 0 0 1 3.944-5.056 68.508 68.508 0 0 1 2.98-3.294 66.662 66.662 0 0 1 4.242-4.073c.137-.124.88-.785 1.007-.883.249-.197.277-.35.22-.425-.06-.081-.229-.096-.395.022l-.222.158-.383.273c-2.137 1.544-4.452 3.607-5.7 4.871a100.194 100.194 0 0 0-4.95 5.507c-1.204 1.431-2.106 2.563-2.98 3.656l-.407.51c-1.696 2.122-2.815 3.524-3.963 4.815-1.239 1.382-2.233 2.331-3.32 3.174a15.707 15.707 0 0 1-3.594 2.1c-.1.055-.159.133-.17.236-.037.304.324.814 1.014 1.434"
     id="path6"
     style="fill:#ffffff;fill-opacity:1" />
</svg>
