<?xml version="1.0" encoding="UTF-8"?>
<svg version="1.1" viewBox="0 0 32 32" xmlns="http://www.w3.org/2000/svg">
<path d="m6.9358 3.8086c3.6688 2.7543 7.615 8.3388 9.0639 11.336 1.4489-2.9968 5.3949-8.5816 9.0639-11.336 2.6473-1.9873 6.9364-3.5251 6.9364 1.368 0 0.97722-0.56028 8.2092-0.8889 9.3832-1.1422 4.0819-5.3046 5.123-9.007 4.4929 6.4718 1.1014 8.1182 4.7499 4.5627 8.3984-6.7527 6.9292-9.7055-1.7385-10.462-3.9595-0.1387-0.40715-0.20362-0.59762-0.20456-0.43566-9.6e-4 -0.16197-0.0659 0.0285-0.20456 0.43566-0.75665 2.221-3.7095 10.889-10.462 3.9595-3.5556-3.6485-1.9092-7.2972 4.5627-8.3984-3.7026 0.63013-7.865-0.41099-9.007-4.4929-0.32863-1.1742-0.8889-8.4061-0.8889-9.3832 0-4.8931 4.2893-3.3554 6.9364-1.368z" fill="#fff"/>
</svg>