<?xml version="1.0" encoding="UTF-8" standalone="no"?>
<!-- Generator: Adobe Illustrator 18.1.1, SVG Export Plug-In . SVG Version: 6.00 Build 0)  -->

<svg
   xmlns:dc="http://purl.org/dc/elements/1.1/"
   xmlns:cc="http://creativecommons.org/ns#"
   xmlns:rdf="http://www.w3.org/1999/02/22-rdf-syntax-ns#"
   xmlns:svg="http://www.w3.org/2000/svg"
   xmlns="http://www.w3.org/2000/svg"
   xmlns:sodipodi="http://sodipodi.sourceforge.net/DTD/sodipodi-0.dtd"
   xmlns:inkscape="http://www.inkscape.org/namespaces/inkscape"
   version="1.1"
   id="Layer_1"
   x="0px"
   y="0px"
   viewBox="0 0 32 32"
   enable-background="new 0 0 36 36"
   xml:space="preserve"
   inkscape:version="0.91 r13725"
   sodipodi:docname="github.svg"
   width="32"
   height="32"><metadata
     id="metadata4699"><rdf:RDF><cc:Work
         rdf:about=""><dc:format>image/svg+xml</dc:format><dc:type
           rdf:resource="http://purl.org/dc/dcmitype/StillImage" /><dc:title></dc:title></cc:Work></rdf:RDF></metadata><defs
     id="defs4697" /><sodipodi:namedview
     pagecolor="#ffffff"
     bordercolor="#666666"
     borderopacity="1"
     objecttolerance="10"
     gridtolerance="10"
     guidetolerance="10"
     inkscape:pageopacity="0"
     inkscape:pageshadow="2"
     inkscape:window-width="640"
     inkscape:window-height="480"
     id="namedview4695"
     showgrid="false"
     fit-margin-top="1"
     fit-margin-left="1"
     fit-margin-right="1"
     fit-margin-bottom="1"
     inkscape:zoom="17.861111"
     inkscape:cx="2.5752722"
     inkscape:cy="16.212938"
     inkscape:current-layer="Layer_1" /><path
     d="M 15.954128,1.2539439 C 7.6972477,1.2539439 1,7.9511916 1,16.208069 c 0,6.605505 4.3119266,12.201835 10.183486,14.220183 0.733945,0.09174 1.009175,-0.366972 1.009175,-0.733945 0,-0.366972 0,-1.284403 0,-2.568807 C 8.0642202,28.042931 7.146789,25.107151 7.146789,25.107151 6.5045871,23.364032 5.4954128,22.905316 5.4954128,22.905316 c -1.3761468,-0.917431 0.091743,-0.917431 0.091743,-0.917431 1.4678899,0.09174 2.2935779,1.559633 2.2935779,1.559633 1.3761464,2.293579 3.4862383,1.651376 4.3119263,1.284404 0.09174,-1.009175 0.550459,-1.651376 0.917431,-2.018348 C 9.807339,22.4466 6.3211008,21.162197 6.3211008,15.38238 c 0,-1.651376 0.5504586,-2.935779 1.5596329,-4.036696 -0.1834858,-0.366973 -0.6422013,-1.9266024 0.1834867,-3.9449514 0,0 1.2844036,-0.3669722 4.1284406,1.559633 1.19266,-0.366972 2.477064,-0.458715 3.761467,-0.458715 1.284404,0 2.568807,0.183486 3.761469,0.458715 2.844036,-1.9266052 4.128439,-1.559633 4.128439,-1.559633 0.825688,2.018349 0.27523,3.5779784 0.183487,3.9449514 0.917431,1.009173 1.559633,2.38532 1.559633,4.036696 0,5.779817 -3.486239,6.972478 -6.788991,7.33945 0.550458,0.458716 1.009174,1.376147 1.009174,2.752294 0,2.018348 0,3.577981 0,4.12844 0,0.366972 0.27523,0.825688 1.009175,0.733946 C 26.779817,28.31816 31,22.72183 31,16.116326 30.908257,7.9511916 24.211009,1.2539439 15.954128,1.2539439 Z"
     id="path4693"
     inkscape:connector-curvature="0"
     style="clip-rule:evenodd;fill:#ffffff;fill-rule:evenodd" /></svg>
