<?xml version="1.0" encoding="UTF-8" standalone="no"?>
<svg
   xmlns:dc="http://purl.org/dc/elements/1.1/"
   xmlns:cc="http://creativecommons.org/ns#"
   xmlns:rdf="http://www.w3.org/1999/02/22-rdf-syntax-ns#"
   xmlns:svg="http://www.w3.org/2000/svg"
   xmlns="http://www.w3.org/2000/svg"
   xmlns:sodipodi="http://sodipodi.sourceforge.net/DTD/sodipodi-0.dtd"
   xmlns:inkscape="http://www.inkscape.org/namespaces/inkscape"
   enable-background="new 0 0 595.275 311.111"
   xml:space="preserve"
   height="16"
   width="16"
   version="1.1"
   y="0px"
   x="0px"
   viewBox="0 0 16 15.999999"
   id="svg2"
   inkscape:version="0.91 r13725"
   sodipodi:docname="nextcloud.svg"><metadata
     id="metadata12"><rdf:RDF><cc:Work
         rdf:about=""><dc:format>image/svg+xml</dc:format><dc:type
           rdf:resource="http://purl.org/dc/dcmitype/StillImage" /><dc:title></dc:title></cc:Work></rdf:RDF></metadata><defs
     id="defs10" /><sodipodi:namedview
     pagecolor="#ffffff"
     bordercolor="#666666"
     borderopacity="1"
     objecttolerance="10"
     gridtolerance="10"
     guidetolerance="10"
     inkscape:pageopacity="0"
     inkscape:pageshadow="2"
     inkscape:window-width="640"
     inkscape:window-height="480"
     id="namedview8"
     showgrid="false"
     inkscape:zoom="20.09375"
     inkscape:cx="2.9611198"
     inkscape:cy="16"
     inkscape:current-layer="svg2" /><path
     style="color:#000000;text-indent:0;text-decoration:none;text-decoration-line:none;text-decoration-style:solid;text-decoration-color:#000000;text-transform:none;block-progression:tb;white-space:normal;isolation:auto;mix-blend-mode:normal;solid-color:#000000;fill:#ffffff;fill-opacity:1;color-rendering:auto;image-rendering:auto;shape-rendering:auto;enable-background:accumulate"
     d="M 8.01216,4.216054 C 6.3451733,4.216214 4.94544,5.35755 4.51776,6.892949 4.1444746,6.071705 3.3228267,5.489704 2.36816,5.489598 1.06864,5.489746 1.6004637e-4,6.558244 4.6367315e-8,7.85776 -2.5701363e-4,9.157543 1.0683733,10.226243 2.36816,10.226403 3.3229333,10.226288 4.1440533,9.643922 4.51728,8.822572 4.9448053,10.358237 6.3450133,11.499787 8.0122133,11.499947 9.67008,11.500075 11.062933,10.37093 11.499307,8.848383 11.87864,9.654535 12.68768,10.226243 13.63136,10.22635 14.931413,10.22658 16.000213,9.157757 16,7.857707 15.999875,6.557924 14.931147,5.489331 13.63136,5.489544 12.687627,5.489654 11.878133,6.061253 11.498827,6.867511 11.062453,5.345017 9.67008,4.21584 8.0122133,4.215947 Z m 0,1.390179 c 1.2518933,-8.4e-5 2.251947,0.999689 2.252053,2.251581 6.3e-5,1.252051 -0.9999997,2.252167 -2.252053,2.252061 C 6.7602666,10.109753 5.76048,9.109705 5.7605866,7.857814 5.7607184,6.606082 6.7604266,5.606393 8.01216,5.606233 Z M 2.3678933,6.879777 C 2.91632,6.87984 3.3458133,7.309358 3.3458667,7.85776 3.3459637,8.40627 2.9164053,8.836171 2.3678933,8.836224 1.81936,8.83616 1.3898133,8.40627 1.38992,7.85776 1.3899829,7.309358 1.8194987,6.87983 2.3678933,6.879777 Z m 11.2634667,0 c 0.548533,-9.6e-5 0.9784,0.429458 0.978453,0.977983 C 14.609943,8.40643 14.18,8.836331 13.63136,8.836224 13.082827,8.83616 12.65328,8.40627 12.653333,7.85776 12.653396,7.309358 13.082928,6.87983 13.63136,6.879777 Z"
     id="path6"
     inkscape:connector-curvature="0" /></svg>