<?xml version="1.0" encoding="UTF-8" standalone="no"?>
<svg xmlns="http://www.w3.org/2000/svg" height="32" width="32" version="1.1" viewBox="0 0 32 32">
 <path d="m18.936 5.4257c-0.851 0.5959-1.489 1.447-1.957 2.3831l-0.21253 0.55343c-0.12761 0.38257-0.21328 0.76597-0.25579 1.1485-0.04247 0.21263-0.04247 0.3834-0.08503 0.55362v0.34006l0.04247 0.55343 0.08512 0.72347h-0.46777c-2.0853-0.04256-4.1274-0.51093-5.9152-1.3193l-1.0636-0.5103c-0.2126-0.0858-0.3827-0.2133-0.5959-0.3408-1.1912-0.6809-2.2548-1.5745-3.1915-2.553-0.5952-0.6385-1.1485-1.3193-1.617-2.0428-0.5102 0.9793-0.8084 2.1278-0.8084 3.3197 0 0.42507 0.042506 0.85108 0.12761 1.2761 0 0.21253 0.042412 0.38331 0.085669 0.55343 0.38265 1.2762 1.0635 2.4256 1.9996 3.2765l0.4684 0.426-0.5959-0.128c-0.766-0.213-1.532-0.468-2.2555-0.767 0.085012 1.532 0.68095 2.9364 1.6169 4.0433 0.89348 1.0628 2.0854 1.872 3.4465 2.2546l-1.5745 0.08503-1.3186-0.04247c0.9787 2.384 3.234 4.128 5.9142 4.341-2.4676 1.829-5.5315 2.851-8.808 2.851 2.4256 1.49 5.1918 2.425 8.212 2.595h1.9579c9.3186-0.51027 16.681-8.2126 16.681-17.66v-0.89348c0.34-0.298 0.68-0.5953 1.022-0.9361 0.808-0.7235 1.532-1.5746 2.127-2.468-0.979 0.6384-2.127 0.9786-3.404 0.9786h-0.08503 0.04247c1.148-0.766 2.043-1.9146 2.51-3.234-0.893 0.4684-1.914 0.8084-2.936 1.1068l-0.12761 0.042469-0.76511 0.17003c-1.107-1.1919-2.827-1.743-4.426-1.9578-0.745-0.1002-1.487 0.2238-2.231 0.3357" fill-rule="evenodd" clip-rule="evenodd" fill="#fff"/>
</svg>
